<?xml version="1.0" encoding="utf-8" ?>
<svg xmlns="http://www.w3.org/2000/svg" xmlns:xlink="http://www.w3.org/1999/xlink" width="1827" height="227">
	<path transform="matrix(1 0 0 -1 12 215.5)" d="M-12 -11.5L12 -11.5L12 11.5L-12 11.5L-12 -11.5Z"/>
	<path transform="matrix(1 0 0 -1 37.75 215.5)" d="M-12 -11.5L12 -11.5L12 11.5L-12 11.5L-12 -11.5Z"/>
	<path transform="matrix(1 0 0 -1 63.5 215.5)" d="M-12 -11.5L12 -11.5L12 11.5L-12 11.5L-12 -11.5Z"/>
	<path transform="matrix(1 0 0 -1 89.25 215.5)" d="M-12 -11.5L12 -11.5L12 11.5L-12 11.5L-12 -11.5Z"/>
	<path transform="matrix(1 0 0 -1 115 215.5)" d="M-12 -11.5L12 -11.5L12 11.5L-12 11.5L-12 -11.5Z"/>
	<path transform="matrix(1 0 0 -1 140.75 215.5)" d="M-12 -11.5L12 -11.5L12 11.5L-12 11.5L-12 -11.5Z"/>
	<path transform="matrix(1 0 0 -1 166.5 215.5)" d="M-12 -11.5L12 -11.5L12 11.5L-12 11.5L-12 -11.5Z"/>
	<path transform="matrix(1 0 0 -1 192.25 215.5)" d="M-12 -11.5L12 -11.5L12 11.5L-12 11.5L-12 -11.5Z"/>
	<path transform="matrix(1 0 0 -1 218 215.5)" d="M-12 -11.5L12 -11.5L12 11.5L-12 11.5L-12 -11.5Z"/>
	<path transform="matrix(1 0 0 -1 243.75 215.5)" d="M-12 -11.5L12 -11.5L12 11.5L-12 11.5L-12 -11.5Z"/>
	<path transform="matrix(1 0 0 -1 269.5 215.5)" d="M-12 -11.5L12 -11.5L12 11.5L-12 11.5L-12 -11.5Z"/>
	<path transform="matrix(1 0 0 -1 295.25 215.5)" d="M-12 -11.5L12 -11.5L12 11.5L-12 11.5L-12 -11.5Z"/>
	<path transform="matrix(1 0 0 -1 321 215.5)" d="M-12 -11.5L12 -11.5L12 11.5L-12 11.5L-12 -11.5Z"/>
	<path transform="matrix(1 0 0 -1 346.75 215.5)" d="M-12 -11.5L12 -11.5L12 11.5L-12 11.5L-12 -11.5Z"/>
	<path transform="matrix(1 0 0 -1 372.5 215.5)" d="M-12 -11.5L12 -11.5L12 11.5L-12 11.5L-12 -11.5Z"/>
	<path transform="matrix(1 0 0 -1 398.25 215.5)" d="M-12 -11.5L12 -11.5L12 11.5L-12 11.5L-12 -11.5Z"/>
	<path transform="matrix(1 0 0 -1 424 215.5)" d="M-12 -11.5L12 -11.5L12 11.5L-12 11.5L-12 -11.5Z"/>
	<path transform="matrix(1 0 0 -1 449.75 215.5)" d="M-12 -11.5L12 -11.5L12 11.5L-12 11.5L-12 -11.5Z"/>
	<path transform="matrix(1 0 0 -1 475.5 215.5)" d="M-12 -11.5L12 -11.5L12 11.5L-12 11.5L-12 -11.5Z"/>
	<path transform="matrix(1 0 0 -1 501.25 215.5)" d="M-12 -11.5L12 -11.5L12 11.5L-12 11.5L-12 -11.5Z"/>
	<path transform="matrix(1 0 0 -1 527 215.5)" d="M-12 -11.5L12 -11.5L12 11.5L-12 11.5L-12 -11.5Z"/>
	<path transform="matrix(1 0 0 -1 552.75 215.5)" d="M-12 -11.5L12 -11.5L12 11.5L-12 11.5L-12 -11.5Z"/>
	<path transform="matrix(1 0 0 -1 578.5 215.5)" d="M-12 -11.5L12 -11.5L12 11.5L-12 11.5L-12 -11.5Z"/>
	<path transform="matrix(1 0 0 -1 604.25 215.5)" d="M-12 -11.5L12 -11.5L12 11.5L-12 11.5L-12 -11.5Z"/>
	<path transform="matrix(1 0 0 -1 630 215.5)" d="M-12 -11.5L12 -11.5L12 11.5L-12 11.5L-12 -11.5Z"/>
	<path transform="matrix(1 0 0 -1 655.75 215.5)" d="M-12 -11.5L12 -11.5L12 11.5L-12 11.5L-12 -11.5Z"/>
	<path transform="matrix(1 0 0 -1 681.5 215.5)" d="M-12 -11.5L12 -11.5L12 11.5L-12 11.5L-12 -11.5Z"/>
	<path transform="matrix(1 0 0 -1 707.25 215.5)" d="M-12 -11.5L12 -11.5L12 11.5L-12 11.5L-12 -11.5Z"/>
	<path transform="matrix(1 0 0 -1 733 215.5)" d="M-12 -11.5L12 -11.5L12 11.5L-12 11.5L-12 -11.5Z"/>
	<path transform="matrix(1 0 0 -1 758.75 215.5)" d="M-12 -11.5L12 -11.5L12 11.5L-12 11.5L-12 -11.5Z"/>
	<path transform="matrix(1 0 0 -1 784.5 215.5)" d="M-12 -11.5L12 -11.5L12 11.5L-12 11.5L-12 -11.5Z"/>
	<path transform="matrix(1 0 0 -1 810.25 215.5)" d="M-12 -11.5L12 -11.5L12 11.5L-12 11.5L-12 -11.5Z"/>
	<path transform="matrix(1 0 0 -1 836 215.5)" d="M-12 -11.5L12 -11.5L12 11.5L-12 11.5L-12 -11.5Z"/>
	<path transform="matrix(1 0 0 -1 861.75 215.5)" d="M-12 -11.5L12 -11.5L12 11.5L-12 11.5L-12 -11.5Z"/>
	<path transform="matrix(1 0 0 -1 887.5 215.5)" d="M-12 -11.5L12 -11.5L12 11.5L-12 11.5L-12 -11.5Z"/>
	<path transform="matrix(1 0 0 -1 913.25 215.5)" d="M-12 -11.5L12 -11.5L12 11.5L-12 11.5L-12 -11.5Z"/>
	<path transform="matrix(1 0 0 -1 939 215.5)" d="M-12 -11.5L12 -11.5L12 11.5L-12 11.5L-12 -11.5Z"/>
	<path transform="matrix(1 0 0 -1 964.75 215.5)" d="M-12 -11.5L12 -11.5L12 11.5L-12 11.5L-12 -11.5Z"/>
	<path transform="matrix(1 0 0 -1 990.5 215.5)" d="M-12 -11.5L12 -11.5L12 11.5L-12 11.5L-12 -11.5Z"/>
	<path transform="matrix(1 0 0 -1 1016.25 215.5)" d="M-12 -11.5L12 -11.5L12 11.5L-12 11.5L-12 -11.5Z"/>
	<path transform="matrix(1 0 0 -1 1042 215.5)" d="M-12 -11.5L12 -11.5L12 11.5L-12 11.5L-12 -11.5Z"/>
	<path transform="matrix(1 0 0 -1 1067.75 215.5)" d="M-12 -11.5L12 -11.5L12 11.5L-12 11.5L-12 -11.5Z"/>
	<path transform="matrix(1 0 0 -1 1093.5 215.5)" d="M-12 -11.5L12 -11.5L12 11.5L-12 11.5L-12 -11.5Z"/>
	<path transform="matrix(1 0 0 -1 1119.25 215.5)" d="M-12 -11.5L12 -11.5L12 11.5L-12 11.5L-12 -11.5Z"/>
	<path transform="matrix(1 0 0 -1 1145 215.5)" d="M-12 -11.5L12 -11.5L12 11.5L-12 11.5L-12 -11.5Z"/>
	<path transform="matrix(1 0 0 -1 1170.75 215.5)" d="M-12 -11.5L12 -11.5L12 11.5L-12 11.5L-12 -11.5Z"/>
	<path transform="matrix(1 0 0 -1 1196.5 215.5)" d="M-12 -11.5L12 -11.5L12 11.5L-12 11.5L-12 -11.5Z"/>
	<path transform="matrix(1 0 0 -1 1222.25 215.5)" d="M-12 -11.5L12 -11.5L12 11.5L-12 11.5L-12 -11.5Z"/>
	<path transform="matrix(1 0 0 -1 1248 215.5)" d="M-12 -11.5L12 -11.5L12 11.5L-12 11.5L-12 -11.5Z"/>
	<path transform="matrix(1 0 0 -1 1273.75 215.5)" d="M-12 -11.5L12 -11.5L12 11.5L-12 11.5L-12 -11.5Z"/>
	<path transform="matrix(1 0 0 -1 1299.5 215.5)" d="M-12 -11.5L12 -11.5L12 11.5L-12 11.5L-12 -11.5Z"/>
	<path transform="matrix(1 0 0 -1 1325.25 215.5)" d="M-12 -11.5L12 -11.5L12 11.5L-12 11.5L-12 -11.5Z"/>
	<path transform="matrix(1 0 0 -1 1351 215.5)" d="M-12 -11.5L12 -11.5L12 11.5L-12 11.5L-12 -11.5Z"/>
	<path transform="matrix(1 0 0 -1 1376.75 215.5)" d="M-12 -11.5L12 -11.5L12 11.5L-12 11.5L-12 -11.5Z"/>
	<path transform="matrix(1 0 0 -1 1402.5 215.5)" d="M-12 -11.5L12 -11.5L12 11.5L-12 11.5L-12 -11.5Z"/>
	<path transform="matrix(1 0 0 -1 1428.25 215.5)" d="M-12 -11.5L12 -11.5L12 11.5L-12 11.5L-12 -11.5Z"/>
	<path transform="matrix(1 0 0 -1 1454 215.5)" d="M-12 -11.5L12 -11.5L12 11.5L-12 11.5L-12 -11.5Z"/>
	<path transform="matrix(1 0 0 -1 1479.75 215.5)" d="M-12 -11.5L12 -11.5L12 11.5L-12 11.5L-12 -11.5Z"/>
	<path transform="matrix(1 0 0 -1 1505.5 215.5)" d="M-12 -11.5L12 -11.5L12 11.5L-12 11.5L-12 -11.5Z"/>
	<path transform="matrix(1 0 0 -1 1531.25 215.5)" d="M-12 -11.5L12 -11.5L12 11.5L-12 11.5L-12 -11.5Z"/>
	<path transform="matrix(1 0 0 -1 1557 215.5)" d="M-12 -11.5L12 -11.5L12 11.5L-12 11.5L-12 -11.5Z"/>
	<path transform="matrix(1 0 0 -1 1582.75 215.5)" d="M-12 -11.5L12 -11.5L12 11.5L-12 11.5L-12 -11.5Z"/>
	<path transform="matrix(1 0 0 -1 1608.5 215.5)" d="M-12 -11.5L12 -11.5L12 11.5L-12 11.5L-12 -11.5Z"/>
	<path transform="matrix(1 0 0 -1 1634.25 215.5)" d="M-12 -11.5L12 -11.5L12 11.5L-12 11.5L-12 -11.5Z"/>
	<path transform="matrix(1 0 0 -1 1660 215.5)" d="M-12 -11.5L12 -11.5L12 11.5L-12 11.5L-12 -11.5Z"/>
	<path transform="matrix(1 0 0 -1 1685.75 215.5)" d="M-12 -11.5L12 -11.5L12 11.5L-12 11.5L-12 -11.5Z"/>
	<path transform="matrix(1 0 0 -1 1711.5 215.5)" d="M-12 -11.5L12 -11.5L12 11.5L-12 11.5L-12 -11.5Z"/>
	<path transform="matrix(1 0 0 -1 1737.25 215.5)" d="M-12 -11.5L12 -11.5L12 11.5L-12 11.5L-12 -11.5Z"/>
	<path transform="matrix(1 0 0 -1 1763 215.5)" d="M-12 -11.5L12 -11.5L12 11.5L-12 11.5L-12 -11.5Z"/>
	<path transform="matrix(1 0 0 -1 1788.75 215.5)" d="M-12 -11.5L12 -11.5L12 11.5L-12 11.5L-12 -11.5Z"/>
	<path transform="matrix(1 0 0 -1 1814.5 215.5)" d="M-12 -11.5L12 -11.5L12 11.5L-12 11.5L-12 -11.5Z"/>
	<path transform="matrix(1 0 0 -1 12 190)" d="M-12 -11.5L12 -11.5L12 11.5L-12 11.5L-12 -11.5Z"/>
	<path transform="matrix(1 0 0 -1 37.75 190)" d="M-12 -11.5L12 -11.5L12 11.5L-12 11.5L-12 -11.5Z"/>
	<path transform="matrix(1 0 0 -1 63.5 190)" d="M-12 -11.5L12 -11.5L12 11.5L-12 11.5L-12 -11.5Z"/>
	<path transform="matrix(1 0 0 -1 89.25 190)" d="M-12 -11.5L12 -11.5L12 11.5L-12 11.5L-12 -11.5Z"/>
	<path transform="matrix(1 0 0 -1 115 190)" d="M-12 -11.5L12 -11.5L12 11.5L-12 11.5L-12 -11.5Z"/>
	<path transform="matrix(1 0 0 -1 140.75 190)" d="M-12 -11.5L12 -11.5L12 11.5L-12 11.5L-12 -11.5Z"/>
	<path transform="matrix(1 0 0 -1 166.5 190)" d="M-12 -11.5L12 -11.5L12 11.5L-12 11.5L-12 -11.5Z"/>
	<path transform="matrix(1 0 0 -1 192.25 190)" d="M-12 -11.5L12 -11.5L12 11.5L-12 11.5L-12 -11.5Z"/>
	<path transform="matrix(1 0 0 -1 218 190)" d="M-12 -11.5L12 -11.5L12 11.5L-12 11.5L-12 -11.5Z"/>
	<path transform="matrix(1 0 0 -1 243.75 190)" d="M-12 -11.5L12 -11.5L12 11.5L-12 11.5L-12 -11.5Z"/>
	<path transform="matrix(1 0 0 -1 269.5 190)" d="M-12 -11.5L12 -11.5L12 11.5L-12 11.5L-12 -11.5Z"/>
	<path transform="matrix(1 0 0 -1 295.25 190)" d="M-12 -11.5L12 -11.5L12 11.5L-12 11.5L-12 -11.5Z"/>
	<path transform="matrix(1 0 0 -1 321 190)" d="M-12 -11.5L12 -11.5L12 11.5L-12 11.5L-12 -11.5Z"/>
	<path transform="matrix(1 0 0 -1 346.75 190)" d="M-12 -11.5L12 -11.5L12 11.5L-12 11.5L-12 -11.5Z"/>
	<path transform="matrix(1 0 0 -1 372.5 190)" d="M-12 -11.5L12 -11.5L12 11.5L-12 11.5L-12 -11.5Z"/>
	<path transform="matrix(1 0 0 -1 398.25 190)" d="M-12 -11.5L12 -11.5L12 11.5L-12 11.5L-12 -11.5Z"/>
	<path transform="matrix(1 0 0 -1 424 190)" d="M-12 -11.5L12 -11.5L12 11.5L-12 11.5L-12 -11.5Z"/>
	<path transform="matrix(1 0 0 -1 449.75 190)" d="M-12 -11.5L12 -11.5L12 11.5L-12 11.5L-12 -11.5Z"/>
	<path transform="matrix(1 0 0 -1 475.5 190)" d="M-12 -11.5L12 -11.5L12 11.5L-12 11.5L-12 -11.5Z"/>
	<path transform="matrix(1 0 0 -1 501.25 190)" d="M-12 -11.5L12 -11.5L12 11.5L-12 11.5L-12 -11.5Z"/>
	<path transform="matrix(1 0 0 -1 527 190)" d="M-12 -11.5L12 -11.5L12 11.5L-12 11.5L-12 -11.5Z"/>
	<path transform="matrix(1 0 0 -1 552.75 190)" d="M-12 -11.5L12 -11.5L12 11.5L-12 11.5L-12 -11.5Z"/>
	<path transform="matrix(1 0 0 -1 578.5 190)" d="M-12 -11.5L12 -11.5L12 11.5L-12 11.5L-12 -11.5Z"/>
	<path transform="matrix(1 0 0 -1 604.25 190)" d="M-12 -11.5L12 -11.5L12 11.5L-12 11.5L-12 -11.5Z"/>
	<path transform="matrix(1 0 0 -1 630 190)" d="M-12 -11.5L12 -11.5L12 11.5L-12 11.5L-12 -11.5Z"/>
	<path transform="matrix(1 0 0 -1 655.75 190)" d="M-12 -11.5L12 -11.5L12 11.5L-12 11.5L-12 -11.5Z"/>
	<path transform="matrix(1 0 0 -1 681.5 190)" d="M-12 -11.5L12 -11.5L12 11.5L-12 11.5L-12 -11.5Z"/>
	<path transform="matrix(1 0 0 -1 707.25 190)" d="M-12 -11.5L12 -11.5L12 11.5L-12 11.5L-12 -11.5Z"/>
	<path transform="matrix(1 0 0 -1 733 190)" d="M-12 -11.5L12 -11.5L12 11.5L-12 11.5L-12 -11.5Z"/>
	<path transform="matrix(1 0 0 -1 758.75 190)" d="M-12 -11.5L12 -11.5L12 11.5L-12 11.5L-12 -11.5Z"/>
	<path transform="matrix(1 0 0 -1 784.5 190)" d="M-12 -11.5L12 -11.5L12 11.5L-12 11.5L-12 -11.5Z"/>
	<path transform="matrix(1 0 0 -1 810.25 190)" d="M-12 -11.5L12 -11.5L12 11.5L-12 11.5L-12 -11.5Z"/>
	<path transform="matrix(1 0 0 -1 836 190)" d="M-12 -11.5L12 -11.5L12 11.5L-12 11.5L-12 -11.5Z"/>
	<path transform="matrix(1 0 0 -1 861.75 190)" d="M-12 -11.5L12 -11.5L12 11.5L-12 11.5L-12 -11.5Z"/>
	<path transform="matrix(1 0 0 -1 887.5 190)" d="M-12 -11.5L12 -11.5L12 11.5L-12 11.5L-12 -11.5Z"/>
	<path transform="matrix(1 0 0 -1 913.25 190)" d="M-12 -11.5L12 -11.5L12 11.5L-12 11.5L-12 -11.5Z"/>
	<path transform="matrix(1 0 0 -1 939 190)" d="M-12 -11.5L12 -11.5L12 11.5L-12 11.5L-12 -11.5Z"/>
	<path transform="matrix(1 0 0 -1 964.75 190)" d="M-12 -11.5L12 -11.5L12 11.5L-12 11.5L-12 -11.5Z"/>
	<path transform="matrix(1 0 0 -1 990.5 190)" d="M-12 -11.5L12 -11.5L12 11.5L-12 11.5L-12 -11.5Z"/>
	<path transform="matrix(1 0 0 -1 1016.25 190)" d="M-12 -11.5L12 -11.5L12 11.5L-12 11.5L-12 -11.5Z"/>
	<path transform="matrix(1 0 0 -1 1042 190)" d="M-12 -11.5L12 -11.5L12 11.5L-12 11.5L-12 -11.5Z"/>
	<path transform="matrix(1 0 0 -1 1067.75 190)" d="M-12 -11.5L12 -11.5L12 11.5L-12 11.5L-12 -11.5Z"/>
	<path transform="matrix(1 0 0 -1 1093.5 190)" d="M-12 -11.5L12 -11.5L12 11.5L-12 11.5L-12 -11.5Z"/>
	<path transform="matrix(1 0 0 -1 1119.25 190)" d="M-12 -11.5L12 -11.5L12 11.5L-12 11.5L-12 -11.5Z"/>
	<path transform="matrix(1 0 0 -1 1145 190)" d="M-12 -11.5L12 -11.5L12 11.5L-12 11.5L-12 -11.5Z"/>
	<path transform="matrix(1 0 0 -1 1170.75 190)" d="M-12 -11.5L12 -11.5L12 11.5L-12 11.5L-12 -11.5Z"/>
	<path transform="matrix(1 0 0 -1 1196.5 190)" d="M-12 -11.5L12 -11.5L12 11.5L-12 11.5L-12 -11.5Z"/>
	<path transform="matrix(1 0 0 -1 1222.25 190)" d="M-12 -11.5L12 -11.5L12 11.5L-12 11.5L-12 -11.5Z"/>
	<path transform="matrix(1 0 0 -1 1248 190)" d="M-12 -11.5L12 -11.5L12 11.5L-12 11.5L-12 -11.5Z"/>
	<path transform="matrix(1 0 0 -1 1273.75 190)" d="M-12 -11.5L12 -11.5L12 11.5L-12 11.5L-12 -11.5Z"/>
	<path transform="matrix(1 0 0 -1 1299.5 190)" d="M-12 -11.5L12 -11.5L12 11.5L-12 11.5L-12 -11.5Z"/>
	<path transform="matrix(1 0 0 -1 1325.25 190)" d="M-12 -11.5L12 -11.5L12 11.5L-12 11.5L-12 -11.5Z"/>
	<path transform="matrix(1 0 0 -1 1351 190)" d="M-12 -11.5L12 -11.5L12 11.5L-12 11.5L-12 -11.5Z"/>
	<path transform="matrix(1 0 0 -1 1376.75 190)" d="M-12 -11.5L12 -11.5L12 11.5L-12 11.5L-12 -11.5Z"/>
	<path transform="matrix(1 0 0 -1 1402.5 190)" d="M-12 -11.5L12 -11.5L12 11.5L-12 11.5L-12 -11.5Z"/>
	<path transform="matrix(1 0 0 -1 1428.25 190)" d="M-12 -11.5L12 -11.5L12 11.5L-12 11.5L-12 -11.5Z"/>
	<path transform="matrix(1 0 0 -1 1454 190)" d="M-12 -11.5L12 -11.5L12 11.5L-12 11.5L-12 -11.5Z"/>
	<path transform="matrix(1 0 0 -1 1479.75 190)" d="M-12 -11.5L12 -11.5L12 11.5L-12 11.5L-12 -11.5Z"/>
	<path transform="matrix(1 0 0 -1 1505.5 190)" d="M-12 -11.5L12 -11.5L12 11.5L-12 11.5L-12 -11.5Z"/>
	<path transform="matrix(1 0 0 -1 1531.25 190)" d="M-12 -11.5L12 -11.5L12 11.5L-12 11.5L-12 -11.5Z"/>
	<path transform="matrix(1 0 0 -1 1557 190)" d="M-12 -11.5L12 -11.5L12 11.5L-12 11.5L-12 -11.5Z"/>
	<path transform="matrix(1 0 0 -1 1582.75 190)" d="M-12 -11.5L12 -11.5L12 11.5L-12 11.5L-12 -11.5Z"/>
	<path transform="matrix(1 0 0 -1 1608.5 190)" d="M-12 -11.5L12 -11.5L12 11.5L-12 11.5L-12 -11.5Z"/>
	<path transform="matrix(1 0 0 -1 1634.25 190)" d="M-12 -11.5L12 -11.5L12 11.5L-12 11.5L-12 -11.5Z"/>
	<path transform="matrix(1 0 0 -1 1660 190)" d="M-12 -11.5L12 -11.5L12 11.5L-12 11.5L-12 -11.5Z"/>
	<path transform="matrix(1 0 0 -1 1685.75 190)" d="M-12 -11.5L12 -11.5L12 11.5L-12 11.5L-12 -11.5Z"/>
	<path transform="matrix(1 0 0 -1 1711.5 190)" d="M-12 -11.5L12 -11.5L12 11.5L-12 11.5L-12 -11.5Z"/>
	<path transform="matrix(1 0 0 -1 1737.25 190)" d="M-12 -11.5L12 -11.5L12 11.5L-12 11.5L-12 -11.5Z"/>
	<path transform="matrix(1 0 0 -1 1763 190)" d="M-12 -11.5L12 -11.5L12 11.5L-12 11.5L-12 -11.5Z"/>
	<path transform="matrix(1 0 0 -1 1788.75 190)" d="M-12 -11.5L12 -11.5L12 11.5L-12 11.5L-12 -11.5Z"/>
	<path transform="matrix(1 0 0 -1 1814.5 190)" d="M-12 -11.5L12 -11.5L12 11.5L-12 11.5L-12 -11.5Z"/>
	<path transform="matrix(1 0 0 -1 12 164.5)" d="M-12 -11.5L12 -11.5L12 11.5L-12 11.5L-12 -11.5Z"/>
	<path transform="matrix(1 0 0 -1 37.75 164.5)" d="M-12 -11.5L12 -11.5L12 11.5L-12 11.5L-12 -11.5Z"/>
	<path transform="matrix(1 0 0 -1 63.5 164.5)" d="M-12 -11.5L12 -11.5L12 11.5L-12 11.5L-12 -11.5Z"/>
	<path transform="matrix(1 0 0 -1 89.25 164.5)" d="M-12 -11.5L12 -11.5L12 11.5L-12 11.5L-12 -11.5Z"/>
	<path transform="matrix(1 0 0 -1 115 164.5)" d="M-12 -11.5L12 -11.5L12 11.5L-12 11.5L-12 -11.5Z"/>
	<path transform="matrix(1 0 0 -1 140.75 164.5)" d="M-12 -11.5L12 -11.5L12 11.5L-12 11.5L-12 -11.5Z"/>
	<path transform="matrix(1 0 0 -1 166.5 164.5)" d="M-12 -11.5L12 -11.5L12 11.5L-12 11.5L-12 -11.5Z"/>
	<path transform="matrix(1 0 0 -1 192.25 164.5)" d="M-12 -11.5L12 -11.5L12 11.5L-12 11.5L-12 -11.5Z"/>
	<path transform="matrix(1 0 0 -1 218 164.5)" d="M-12 -11.5L12 -11.5L12 11.5L-12 11.5L-12 -11.5Z"/>
	<path transform="matrix(1 0 0 -1 243.75 164.5)" d="M-12 -11.5L12 -11.5L12 11.5L-12 11.5L-12 -11.5Z"/>
	<path transform="matrix(1 0 0 -1 269.5 164.5)" d="M-12 -11.5L12 -11.5L12 11.5L-12 11.5L-12 -11.5Z"/>
	<path transform="matrix(1 0 0 -1 295.25 164.5)" d="M-12 -11.5L12 -11.5L12 11.5L-12 11.5L-12 -11.5Z"/>
	<path transform="matrix(1 0 0 -1 321 164.5)" d="M-12 -11.5L12 -11.5L12 11.5L-12 11.5L-12 -11.5Z"/>
	<path transform="matrix(1 0 0 -1 346.75 164.5)" d="M-12 -11.5L12 -11.5L12 11.5L-12 11.5L-12 -11.5Z"/>
	<path transform="matrix(1 0 0 -1 372.5 164.5)" d="M-12 -11.5L12 -11.5L12 11.5L-12 11.5L-12 -11.5Z"/>
	<path transform="matrix(1 0 0 -1 398.25 164.5)" d="M-12 -11.5L12 -11.5L12 11.5L-12 11.5L-12 -11.5Z"/>
	<path transform="matrix(1 0 0 -1 424 164.5)" d="M-12 -11.5L12 -11.5L12 11.5L-12 11.5L-12 -11.5Z"/>
	<path transform="matrix(1 0 0 -1 449.75 164.5)" d="M-12 -11.5L12 -11.5L12 11.5L-12 11.5L-12 -11.5Z"/>
	<path transform="matrix(1 0 0 -1 475.5 164.5)" d="M-12 -11.5L12 -11.5L12 11.5L-12 11.5L-12 -11.5Z"/>
	<path transform="matrix(1 0 0 -1 501.25 164.5)" d="M-12 -11.5L12 -11.5L12 11.5L-12 11.5L-12 -11.5Z"/>
	<path transform="matrix(1 0 0 -1 527 164.5)" d="M-12 -11.5L12 -11.5L12 11.5L-12 11.5L-12 -11.5Z"/>
	<path transform="matrix(1 0 0 -1 552.75 164.5)" d="M-12 -11.5L12 -11.5L12 11.5L-12 11.5L-12 -11.5Z"/>
	<path transform="matrix(1 0 0 -1 578.5 164.5)" d="M-12 -11.5L12 -11.5L12 11.5L-12 11.5L-12 -11.5Z"/>
	<path transform="matrix(1 0 0 -1 604.25 164.5)" d="M-12 -11.5L12 -11.5L12 11.5L-12 11.5L-12 -11.5Z"/>
	<path transform="matrix(1 0 0 -1 630 164.5)" d="M-12 -11.5L12 -11.5L12 11.5L-12 11.5L-12 -11.5Z"/>
	<path transform="matrix(1 0 0 -1 655.75 164.5)" d="M-12 -11.5L12 -11.5L12 11.5L-12 11.5L-12 -11.5Z"/>
	<path transform="matrix(1 0 0 -1 681.5 164.5)" d="M-12 -11.5L12 -11.5L12 11.5L-12 11.5L-12 -11.5Z"/>
	<path transform="matrix(1 0 0 -1 707.25 164.5)" d="M-12 -11.5L12 -11.5L12 11.5L-12 11.5L-12 -11.5Z"/>
	<path transform="matrix(1 0 0 -1 733 164.5)" d="M-12 -11.5L12 -11.5L12 11.5L-12 11.5L-12 -11.5Z"/>
	<path transform="matrix(1 0 0 -1 758.75 164.5)" d="M-12 -11.5L12 -11.5L12 11.5L-12 11.5L-12 -11.5Z"/>
	<path transform="matrix(1 0 0 -1 784.5 164.5)" d="M-12 -11.5L12 -11.5L12 11.5L-12 11.5L-12 -11.5Z"/>
	<path transform="matrix(1 0 0 -1 810.25 164.5)" d="M-12 -11.5L12 -11.5L12 11.5L-12 11.5L-12 -11.5Z"/>
	<path transform="matrix(1 0 0 -1 836 164.5)" d="M-12 -11.5L12 -11.5L12 11.5L-12 11.5L-12 -11.5Z"/>
	<path transform="matrix(1 0 0 -1 861.75 164.5)" d="M-12 -11.5L12 -11.5L12 11.5L-12 11.5L-12 -11.5Z"/>
	<path transform="matrix(1 0 0 -1 887.5 164.5)" d="M-12 -11.5L12 -11.5L12 11.5L-12 11.5L-12 -11.5Z"/>
	<path transform="matrix(1 0 0 -1 913.25 164.5)" d="M-12 -11.5L12 -11.5L12 11.5L-12 11.5L-12 -11.5Z"/>
	<path transform="matrix(1 0 0 -1 939 164.5)" d="M-12 -11.5L12 -11.5L12 11.5L-12 11.5L-12 -11.5Z"/>
	<path transform="matrix(1 0 0 -1 964.75 164.5)" d="M-12 -11.5L12 -11.5L12 11.5L-12 11.5L-12 -11.5Z"/>
	<path transform="matrix(1 0 0 -1 990.5 164.5)" d="M-12 -11.5L12 -11.5L12 11.5L-12 11.5L-12 -11.5Z"/>
	<path transform="matrix(1 0 0 -1 1016.25 164.5)" d="M-12 -11.5L12 -11.5L12 11.5L-12 11.5L-12 -11.5Z"/>
	<path transform="matrix(1 0 0 -1 1042 164.5)" d="M-12 -11.5L12 -11.5L12 11.5L-12 11.5L-12 -11.5Z"/>
	<path transform="matrix(1 0 0 -1 1067.75 164.5)" d="M-12 -11.5L12 -11.5L12 11.5L-12 11.5L-12 -11.5Z"/>
	<path transform="matrix(1 0 0 -1 1093.5 164.5)" d="M-12 -11.5L12 -11.5L12 11.5L-12 11.5L-12 -11.5Z"/>
	<path transform="matrix(1 0 0 -1 1119.25 164.5)" d="M-12 -11.5L12 -11.5L12 11.5L-12 11.5L-12 -11.5Z"/>
	<path transform="matrix(1 0 0 -1 1145 164.5)" d="M-12 -11.5L12 -11.5L12 11.5L-12 11.5L-12 -11.5Z"/>
	<path transform="matrix(1 0 0 -1 1170.75 164.5)" d="M-12 -11.5L12 -11.5L12 11.5L-12 11.5L-12 -11.5Z"/>
	<path transform="matrix(1 0 0 -1 1196.5 164.5)" d="M-12 -11.5L12 -11.5L12 11.5L-12 11.5L-12 -11.5Z"/>
	<path transform="matrix(1 0 0 -1 1222.25 164.5)" d="M-12 -11.5L12 -11.5L12 11.5L-12 11.5L-12 -11.5Z"/>
	<path transform="matrix(1 0 0 -1 1248 164.5)" d="M-12 -11.5L12 -11.5L12 11.5L-12 11.5L-12 -11.5Z"/>
	<path transform="matrix(1 0 0 -1 1273.75 164.5)" d="M-12 -11.5L12 -11.5L12 11.5L-12 11.5L-12 -11.5Z"/>
	<path transform="matrix(1 0 0 -1 1299.5 164.5)" d="M-12 -11.5L12 -11.5L12 11.5L-12 11.5L-12 -11.5Z"/>
	<path transform="matrix(1 0 0 -1 1325.25 164.5)" d="M-12 -11.5L12 -11.5L12 11.5L-12 11.5L-12 -11.5Z"/>
	<path transform="matrix(1 0 0 -1 1351 164.5)" d="M-12 -11.5L12 -11.5L12 11.5L-12 11.5L-12 -11.5Z"/>
	<path transform="matrix(1 0 0 -1 1376.75 164.5)" d="M-12 -11.5L12 -11.5L12 11.5L-12 11.5L-12 -11.5Z"/>
	<path transform="matrix(1 0 0 -1 1402.5 164.5)" d="M-12 -11.5L12 -11.5L12 11.5L-12 11.5L-12 -11.5Z"/>
	<path transform="matrix(1 0 0 -1 1428.25 164.5)" d="M-12 -11.5L12 -11.5L12 11.5L-12 11.5L-12 -11.5Z"/>
	<path transform="matrix(1 0 0 -1 1454 164.5)" d="M-12 -11.5L12 -11.5L12 11.5L-12 11.5L-12 -11.5Z"/>
	<path transform="matrix(1 0 0 -1 1479.75 164.5)" d="M-12 -11.5L12 -11.5L12 11.5L-12 11.5L-12 -11.5Z"/>
	<path transform="matrix(1 0 0 -1 1505.5 164.5)" d="M-12 -11.5L12 -11.5L12 11.5L-12 11.5L-12 -11.5Z"/>
	<path transform="matrix(1 0 0 -1 1531.25 164.5)" d="M-12 -11.5L12 -11.5L12 11.5L-12 11.5L-12 -11.5Z"/>
	<path transform="matrix(1 0 0 -1 1557 164.5)" d="M-12 -11.5L12 -11.5L12 11.5L-12 11.5L-12 -11.5Z"/>
	<path transform="matrix(1 0 0 -1 1582.75 164.5)" d="M-12 -11.5L12 -11.5L12 11.5L-12 11.5L-12 -11.5Z"/>
	<path transform="matrix(1 0 0 -1 1608.5 164.5)" d="M-12 -11.5L12 -11.5L12 11.5L-12 11.5L-12 -11.5Z"/>
	<path transform="matrix(1 0 0 -1 1634.25 164.5)" d="M-12 -11.5L12 -11.5L12 11.5L-12 11.5L-12 -11.5Z"/>
	<path transform="matrix(1 0 0 -1 1660 164.5)" d="M-12 -11.5L12 -11.5L12 11.5L-12 11.5L-12 -11.5Z"/>
	<path transform="matrix(1 0 0 -1 1685.75 164.5)" d="M-12 -11.5L12 -11.5L12 11.5L-12 11.5L-12 -11.5Z"/>
	<path transform="matrix(1 0 0 -1 1711.5 164.5)" d="M-12 -11.5L12 -11.5L12 11.5L-12 11.5L-12 -11.5Z"/>
	<path transform="matrix(1 0 0 -1 1737.25 164.5)" d="M-12 -11.5L12 -11.5L12 11.5L-12 11.5L-12 -11.5Z"/>
	<path transform="matrix(1 0 0 -1 1763 164.5)" d="M-12 -11.5L12 -11.5L12 11.5L-12 11.5L-12 -11.5Z"/>
	<path transform="matrix(1 0 0 -1 1788.75 164.5)" d="M-12 -11.5L12 -11.5L12 11.5L-12 11.5L-12 -11.5Z"/>
	<path transform="matrix(1 0 0 -1 1814.5 164.5)" d="M-12 -11.5L12 -11.5L12 11.5L-12 11.5L-12 -11.5Z"/>
	<path transform="matrix(1 0 0 -1 12 139)" d="M-12 -11.5L12 -11.5L12 11.5L-12 11.5L-12 -11.5Z"/>
	<path transform="matrix(1 0 0 -1 37.75 139)" d="M-12 -11.5L12 -11.5L12 11.5L-12 11.5L-12 -11.5Z"/>
	<path transform="matrix(1 0 0 -1 63.5 139)" d="M-12 -11.5L12 -11.5L12 11.5L-12 11.5L-12 -11.5Z"/>
	<path transform="matrix(1 0 0 -1 89.25 139)" d="M-12 -11.5L12 -11.5L12 11.5L-12 11.5L-12 -11.5Z"/>
	<path transform="matrix(1 0 0 -1 115 139)" d="M-12 -11.5L12 -11.5L12 11.5L-12 11.5L-12 -11.5Z"/>
	<path transform="matrix(1 0 0 -1 140.75 139)" d="M-12 -11.5L12 -11.5L12 11.5L-12 11.5L-12 -11.5Z"/>
	<path transform="matrix(1 0 0 -1 166.5 139)" d="M-12 -11.5L12 -11.5L12 11.5L-12 11.5L-12 -11.5Z"/>
	<path transform="matrix(1 0 0 -1 192.25 139)" d="M-12 -11.5L12 -11.5L12 11.5L-12 11.5L-12 -11.5Z"/>
	<path transform="matrix(1 0 0 -1 218 139)" d="M-12 -11.5L12 -11.5L12 11.5L-12 11.5L-12 -11.5Z"/>
	<path transform="matrix(1 0 0 -1 243.75 139)" d="M-12 -11.5L12 -11.5L12 11.5L-12 11.5L-12 -11.5Z"/>
	<path transform="matrix(1 0 0 -1 269.5 139)" d="M-12 -11.5L12 -11.5L12 11.5L-12 11.5L-12 -11.5Z"/>
	<path transform="matrix(1 0 0 -1 295.25 139)" d="M-12 -11.5L12 -11.5L12 11.5L-12 11.5L-12 -11.5Z"/>
	<path transform="matrix(1 0 0 -1 321 139)" d="M-12 -11.5L12 -11.5L12 11.5L-12 11.5L-12 -11.5Z"/>
	<path transform="matrix(1 0 0 -1 346.75 139)" d="M-12 -11.5L12 -11.5L12 11.5L-12 11.5L-12 -11.5Z"/>
	<path transform="matrix(1 0 0 -1 372.5 139)" d="M-12 -11.5L12 -11.5L12 11.5L-12 11.5L-12 -11.5Z"/>
	<path transform="matrix(1 0 0 -1 398.25 139)" d="M-12 -11.5L12 -11.5L12 11.5L-12 11.5L-12 -11.5Z"/>
	<path transform="matrix(1 0 0 -1 424 139)" d="M-12 -11.5L12 -11.5L12 11.5L-12 11.5L-12 -11.5Z"/>
	<path transform="matrix(1 0 0 -1 449.75 139)" d="M-12 -11.5L12 -11.5L12 11.5L-12 11.5L-12 -11.5Z"/>
	<path transform="matrix(1 0 0 -1 475.5 139)" d="M-12 -11.5L12 -11.5L12 11.5L-12 11.5L-12 -11.5Z"/>
	<path transform="matrix(1 0 0 -1 501.25 139)" d="M-12 -11.5L12 -11.5L12 11.5L-12 11.5L-12 -11.5Z"/>
	<path transform="matrix(1 0 0 -1 527 139)" d="M-12 -11.5L12 -11.5L12 11.5L-12 11.5L-12 -11.5Z"/>
	<path transform="matrix(1 0 0 -1 552.75 139)" d="M-12 -11.5L12 -11.5L12 11.5L-12 11.5L-12 -11.5Z"/>
	<path transform="matrix(1 0 0 -1 578.5 139)" d="M-12 -11.5L12 -11.5L12 11.5L-12 11.5L-12 -11.5Z"/>
	<path transform="matrix(1 0 0 -1 604.25 139)" d="M-12 -11.5L12 -11.5L12 11.5L-12 11.5L-12 -11.5Z"/>
	<path transform="matrix(1 0 0 -1 630 139)" d="M-12 -11.5L12 -11.5L12 11.5L-12 11.5L-12 -11.5Z"/>
	<path transform="matrix(1 0 0 -1 655.75 139)" d="M-12 -11.5L12 -11.5L12 11.5L-12 11.5L-12 -11.5Z"/>
	<path transform="matrix(1 0 0 -1 681.5 139)" d="M-12 -11.5L12 -11.5L12 11.5L-12 11.5L-12 -11.5Z"/>
	<path transform="matrix(1 0 0 -1 707.25 139)" d="M-12 -11.5L12 -11.5L12 11.5L-12 11.5L-12 -11.5Z"/>
	<path transform="matrix(1 0 0 -1 733 139)" d="M-12 -11.5L12 -11.5L12 11.5L-12 11.5L-12 -11.5Z"/>
	<path transform="matrix(1 0 0 -1 758.75 139)" d="M-12 -11.5L12 -11.5L12 11.5L-12 11.5L-12 -11.5Z"/>
	<path transform="matrix(1 0 0 -1 784.5 139)" d="M-12 -11.5L12 -11.5L12 11.5L-12 11.5L-12 -11.5Z"/>
	<path transform="matrix(1 0 0 -1 810.25 139)" d="M-12 -11.5L12 -11.5L12 11.5L-12 11.5L-12 -11.5Z"/>
	<path transform="matrix(1 0 0 -1 836 139)" d="M-12 -11.5L12 -11.5L12 11.5L-12 11.5L-12 -11.5Z"/>
	<path transform="matrix(1 0 0 -1 861.75 139)" d="M-12 -11.5L12 -11.5L12 11.5L-12 11.5L-12 -11.5Z"/>
	<path transform="matrix(1 0 0 -1 887.5 139)" d="M-12 -11.5L12 -11.5L12 11.5L-12 11.5L-12 -11.5Z"/>
	<path transform="matrix(1 0 0 -1 913.25 139)" d="M-12 -11.5L12 -11.5L12 11.5L-12 11.5L-12 -11.5Z"/>
	<path transform="matrix(1 0 0 -1 939 139)" d="M-12 -11.5L12 -11.5L12 11.5L-12 11.5L-12 -11.5Z"/>
	<path transform="matrix(1 0 0 -1 964.75 139)" d="M-12 -11.5L12 -11.5L12 11.5L-12 11.5L-12 -11.5Z"/>
	<path transform="matrix(1 0 0 -1 990.5 139)" d="M-12 -11.5L12 -11.5L12 11.5L-12 11.5L-12 -11.5Z"/>
	<path transform="matrix(1 0 0 -1 1016.25 139)" d="M-12 -11.5L12 -11.5L12 11.5L-12 11.5L-12 -11.5Z"/>
	<path transform="matrix(1 0 0 -1 1042 139)" d="M-12 -11.5L12 -11.5L12 11.5L-12 11.5L-12 -11.5Z"/>
	<path transform="matrix(1 0 0 -1 1067.75 139)" d="M-12 -11.5L12 -11.5L12 11.5L-12 11.5L-12 -11.5Z"/>
	<path transform="matrix(1 0 0 -1 1093.5 139)" d="M-12 -11.5L12 -11.5L12 11.5L-12 11.5L-12 -11.5Z"/>
	<path transform="matrix(1 0 0 -1 1119.25 139)" d="M-12 -11.5L12 -11.5L12 11.5L-12 11.5L-12 -11.5Z"/>
	<path transform="matrix(1 0 0 -1 1145 139)" d="M-12 -11.5L12 -11.5L12 11.5L-12 11.5L-12 -11.5Z"/>
	<path transform="matrix(1 0 0 -1 1170.75 139)" d="M-12 -11.5L12 -11.5L12 11.5L-12 11.5L-12 -11.5Z"/>
	<path transform="matrix(1 0 0 -1 1196.5 139)" d="M-12 -11.5L12 -11.5L12 11.5L-12 11.5L-12 -11.5Z"/>
	<path transform="matrix(1 0 0 -1 1222.25 139)" d="M-12 -11.5L12 -11.5L12 11.5L-12 11.5L-12 -11.5Z"/>
	<path transform="matrix(1 0 0 -1 1248 139)" d="M-12 -11.5L12 -11.5L12 11.5L-12 11.5L-12 -11.5Z"/>
	<path transform="matrix(1 0 0 -1 1273.75 139)" d="M-12 -11.5L12 -11.5L12 11.5L-12 11.5L-12 -11.5Z"/>
	<path transform="matrix(1 0 0 -1 1299.5 139)" d="M-12 -11.5L12 -11.5L12 11.5L-12 11.5L-12 -11.5Z"/>
	<path transform="matrix(1 0 0 -1 1325.25 139)" d="M-12 -11.5L12 -11.5L12 11.5L-12 11.5L-12 -11.5Z"/>
	<path transform="matrix(1 0 0 -1 1351 139)" d="M-12 -11.5L12 -11.5L12 11.5L-12 11.5L-12 -11.5Z"/>
	<path transform="matrix(1 0 0 -1 1376.75 139)" d="M-12 -11.5L12 -11.5L12 11.5L-12 11.5L-12 -11.5Z"/>
	<path transform="matrix(1 0 0 -1 1402.5 139)" d="M-12 -11.5L12 -11.5L12 11.5L-12 11.5L-12 -11.5Z"/>
	<path transform="matrix(1 0 0 -1 1428.25 139)" d="M-12 -11.5L12 -11.5L12 11.5L-12 11.5L-12 -11.5Z"/>
	<path transform="matrix(1 0 0 -1 1454 139)" d="M-12 -11.5L12 -11.5L12 11.5L-12 11.5L-12 -11.5Z"/>
	<path transform="matrix(1 0 0 -1 1479.75 139)" d="M-12 -11.5L12 -11.5L12 11.5L-12 11.5L-12 -11.5Z"/>
	<path transform="matrix(1 0 0 -1 1505.5 139)" d="M-12 -11.5L12 -11.5L12 11.5L-12 11.5L-12 -11.5Z"/>
	<path transform="matrix(1 0 0 -1 1531.25 139)" d="M-12 -11.5L12 -11.5L12 11.5L-12 11.5L-12 -11.5Z"/>
	<path transform="matrix(1 0 0 -1 1557 139)" d="M-12 -11.5L12 -11.5L12 11.5L-12 11.5L-12 -11.5Z"/>
	<path transform="matrix(1 0 0 -1 1582.75 139)" d="M-12 -11.5L12 -11.5L12 11.5L-12 11.5L-12 -11.5Z"/>
	<path transform="matrix(1 0 0 -1 1608.5 139)" d="M-12 -11.5L12 -11.5L12 11.5L-12 11.5L-12 -11.5Z"/>
	<path transform="matrix(1 0 0 -1 1634.25 139)" d="M-12 -11.5L12 -11.5L12 11.5L-12 11.5L-12 -11.5Z"/>
	<path transform="matrix(1 0 0 -1 1660 139)" d="M-12 -11.5L12 -11.5L12 11.5L-12 11.5L-12 -11.5Z"/>
	<path transform="matrix(1 0 0 -1 1685.75 139)" d="M-12 -11.5L12 -11.5L12 11.5L-12 11.5L-12 -11.5Z"/>
	<path transform="matrix(1 0 0 -1 1711.5 139)" d="M-12 -11.5L12 -11.5L12 11.5L-12 11.5L-12 -11.5Z"/>
	<path transform="matrix(1 0 0 -1 1737.25 139)" d="M-12 -11.5L12 -11.5L12 11.5L-12 11.5L-12 -11.5Z"/>
	<path transform="matrix(1 0 0 -1 1763 139)" d="M-12 -11.5L12 -11.5L12 11.5L-12 11.5L-12 -11.5Z"/>
	<path transform="matrix(1 0 0 -1 1788.75 139)" d="M-12 -11.5L12 -11.5L12 11.5L-12 11.5L-12 -11.5Z"/>
	<path transform="matrix(1 0 0 -1 1814.5 139)" d="M-12 -11.5L12 -11.5L12 11.5L-12 11.5L-12 -11.5Z"/>
	<path transform="matrix(1 0 0 -1 12 113.5)" d="M-12 -11.5L12 -11.5L12 11.5L-12 11.5L-12 -11.5Z"/>
	<path transform="matrix(1 0 0 -1 37.75 113.5)" d="M-12 -11.5L12 -11.5L12 11.5L-12 11.5L-12 -11.5Z"/>
	<path transform="matrix(1 0 0 -1 63.5 113.5)" d="M-12 -11.5L12 -11.5L12 11.5L-12 11.5L-12 -11.5Z"/>
	<path transform="matrix(1 0 0 -1 89.25 113.5)" d="M-12 -11.5L12 -11.5L12 11.5L-12 11.5L-12 -11.5Z"/>
	<path transform="matrix(1 0 0 -1 115 113.5)" d="M-12 -11.5L12 -11.5L12 11.5L-12 11.5L-12 -11.5Z"/>
	<path transform="matrix(1 0 0 -1 140.75 113.5)" d="M-12 -11.5L12 -11.5L12 11.5L-12 11.5L-12 -11.5Z"/>
	<path transform="matrix(1 0 0 -1 166.5 113.5)" d="M-12 -11.5L12 -11.5L12 11.5L-12 11.5L-12 -11.5Z"/>
	<path transform="matrix(1 0 0 -1 192.25 113.5)" d="M-12 -11.5L12 -11.5L12 11.5L-12 11.5L-12 -11.5Z"/>
	<path transform="matrix(1 0 0 -1 218 113.5)" d="M-12 -11.5L12 -11.5L12 11.5L-12 11.5L-12 -11.5Z"/>
	<path transform="matrix(1 0 0 -1 243.75 113.5)" d="M-12 -11.5L12 -11.5L12 11.5L-12 11.5L-12 -11.5Z"/>
	<path transform="matrix(1 0 0 -1 269.5 113.5)" d="M-12 -11.5L12 -11.5L12 11.5L-12 11.5L-12 -11.5Z"/>
	<path transform="matrix(1 0 0 -1 295.25 113.5)" d="M-12 -11.5L12 -11.5L12 11.5L-12 11.5L-12 -11.5Z"/>
	<path transform="matrix(1 0 0 -1 321 113.5)" d="M-12 -11.5L12 -11.5L12 11.5L-12 11.5L-12 -11.5Z"/>
	<path transform="matrix(1 0 0 -1 346.75 113.5)" d="M-12 -11.5L12 -11.5L12 11.5L-12 11.5L-12 -11.5Z"/>
	<path transform="matrix(1 0 0 -1 372.5 113.5)" d="M-12 -11.5L12 -11.5L12 11.5L-12 11.5L-12 -11.5Z"/>
	<path transform="matrix(1 0 0 -1 398.25 113.5)" d="M-12 -11.5L12 -11.5L12 11.5L-12 11.5L-12 -11.5Z"/>
	<path transform="matrix(1 0 0 -1 424 113.5)" d="M-12 -11.5L12 -11.5L12 11.5L-12 11.5L-12 -11.5Z"/>
	<path transform="matrix(1 0 0 -1 449.75 113.5)" d="M-12 -11.5L12 -11.5L12 11.5L-12 11.5L-12 -11.5Z"/>
	<path transform="matrix(1 0 0 -1 475.5 113.5)" d="M-12 -11.5L12 -11.5L12 11.5L-12 11.5L-12 -11.5Z"/>
	<path transform="matrix(1 0 0 -1 501.25 113.5)" d="M-12 -11.5L12 -11.5L12 11.5L-12 11.5L-12 -11.5Z"/>
	<path transform="matrix(1 0 0 -1 527 113.5)" d="M-12 -11.5L12 -11.5L12 11.5L-12 11.5L-12 -11.5Z"/>
	<path transform="matrix(1 0 0 -1 552.75 113.5)" d="M-12 -11.5L12 -11.5L12 11.5L-12 11.5L-12 -11.5Z"/>
	<path transform="matrix(1 0 0 -1 578.5 113.5)" d="M-12 -11.5L12 -11.5L12 11.5L-12 11.5L-12 -11.5Z"/>
	<path transform="matrix(1 0 0 -1 604.25 113.5)" d="M-12 -11.5L12 -11.5L12 11.5L-12 11.5L-12 -11.5Z"/>
	<path transform="matrix(1 0 0 -1 630 113.5)" d="M-12 -11.5L12 -11.5L12 11.5L-12 11.5L-12 -11.5Z"/>
	<path transform="matrix(1 0 0 -1 655.75 113.5)" d="M-12 -11.5L12 -11.5L12 11.5L-12 11.5L-12 -11.5Z"/>
	<path transform="matrix(1 0 0 -1 681.5 113.5)" d="M-12 -11.5L12 -11.5L12 11.5L-12 11.5L-12 -11.5Z"/>
	<path transform="matrix(1 0 0 -1 707.25 113.5)" d="M-12 -11.5L12 -11.5L12 11.5L-12 11.5L-12 -11.5Z"/>
	<path transform="matrix(1 0 0 -1 733 113.5)" d="M-12 -11.5L12 -11.5L12 11.5L-12 11.5L-12 -11.5Z"/>
	<path transform="matrix(1 0 0 -1 758.75 113.5)" d="M-12 -11.5L12 -11.5L12 11.5L-12 11.5L-12 -11.5Z"/>
	<path transform="matrix(1 0 0 -1 784.5 113.5)" d="M-12 -11.5L12 -11.5L12 11.5L-12 11.5L-12 -11.5Z"/>
	<path transform="matrix(1 0 0 -1 810.25 113.5)" d="M-12 -11.5L12 -11.5L12 11.5L-12 11.5L-12 -11.5Z"/>
	<path transform="matrix(1 0 0 -1 836 113.5)" d="M-12 -11.5L12 -11.5L12 11.5L-12 11.5L-12 -11.5Z"/>
	<path transform="matrix(1 0 0 -1 861.75 113.5)" d="M-12 -11.5L12 -11.5L12 11.5L-12 11.5L-12 -11.5Z"/>
	<path transform="matrix(1 0 0 -1 887.5 113.5)" d="M-12 -11.5L12 -11.5L12 11.5L-12 11.5L-12 -11.5Z"/>
	<path transform="matrix(1 0 0 -1 913.25 113.5)" d="M-12 -11.5L12 -11.5L12 11.5L-12 11.5L-12 -11.5Z"/>
	<path transform="matrix(1 0 0 -1 939 113.5)" d="M-12 -11.5L12 -11.5L12 11.5L-12 11.5L-12 -11.5Z"/>
	<path transform="matrix(1 0 0 -1 964.75 113.5)" d="M-12 -11.5L12 -11.5L12 11.5L-12 11.5L-12 -11.5Z"/>
	<path transform="matrix(1 0 0 -1 990.5 113.5)" d="M-12 -11.5L12 -11.5L12 11.5L-12 11.5L-12 -11.5Z"/>
	<path transform="matrix(1 0 0 -1 1016.25 113.5)" d="M-12 -11.5L12 -11.5L12 11.5L-12 11.5L-12 -11.5Z"/>
	<path transform="matrix(1 0 0 -1 1042 113.5)" d="M-12 -11.5L12 -11.5L12 11.5L-12 11.5L-12 -11.5Z"/>
	<path transform="matrix(1 0 0 -1 1067.75 113.5)" d="M-12 -11.5L12 -11.5L12 11.5L-12 11.5L-12 -11.5Z"/>
	<path transform="matrix(1 0 0 -1 1093.5 113.5)" d="M-12 -11.5L12 -11.5L12 11.5L-12 11.5L-12 -11.5Z"/>
	<path transform="matrix(1 0 0 -1 1119.25 113.5)" d="M-12 -11.5L12 -11.5L12 11.5L-12 11.5L-12 -11.5Z"/>
	<path transform="matrix(1 0 0 -1 1145 113.5)" d="M-12 -11.5L12 -11.5L12 11.5L-12 11.5L-12 -11.5Z"/>
	<path transform="matrix(1 0 0 -1 1170.75 113.5)" d="M-12 -11.5L12 -11.5L12 11.5L-12 11.5L-12 -11.5Z"/>
	<path transform="matrix(1 0 0 -1 1196.5 113.5)" d="M-12 -11.5L12 -11.5L12 11.5L-12 11.5L-12 -11.5Z"/>
	<path transform="matrix(1 0 0 -1 1222.25 113.5)" d="M-12 -11.5L12 -11.5L12 11.5L-12 11.5L-12 -11.5Z"/>
	<path transform="matrix(1 0 0 -1 1248 113.5)" d="M-12 -11.5L12 -11.5L12 11.5L-12 11.5L-12 -11.5Z"/>
	<path transform="matrix(1 0 0 -1 1273.75 113.5)" d="M-12 -11.5L12 -11.5L12 11.5L-12 11.5L-12 -11.5Z"/>
	<path transform="matrix(1 0 0 -1 1299.5 113.5)" d="M-12 -11.5L12 -11.5L12 11.5L-12 11.5L-12 -11.5Z"/>
	<path transform="matrix(1 0 0 -1 1325.25 113.5)" d="M-12 -11.5L12 -11.5L12 11.5L-12 11.5L-12 -11.5Z"/>
	<path transform="matrix(1 0 0 -1 1351 113.5)" d="M-12 -11.5L12 -11.5L12 11.5L-12 11.5L-12 -11.5Z"/>
	<path transform="matrix(1 0 0 -1 1376.75 113.5)" d="M-12 -11.5L12 -11.5L12 11.5L-12 11.5L-12 -11.5Z"/>
	<path transform="matrix(1 0 0 -1 1402.5 113.5)" d="M-12 -11.5L12 -11.5L12 11.5L-12 11.5L-12 -11.5Z"/>
	<path transform="matrix(1 0 0 -1 1428.25 113.5)" d="M-12 -11.5L12 -11.5L12 11.5L-12 11.5L-12 -11.5Z"/>
	<path transform="matrix(1 0 0 -1 1454 113.5)" d="M-12 -11.5L12 -11.5L12 11.5L-12 11.5L-12 -11.5Z"/>
	<path transform="matrix(1 0 0 -1 1479.75 113.5)" d="M-12 -11.5L12 -11.5L12 11.5L-12 11.5L-12 -11.5Z"/>
	<path transform="matrix(1 0 0 -1 1505.5 113.5)" d="M-12 -11.5L12 -11.5L12 11.5L-12 11.5L-12 -11.5Z"/>
	<path transform="matrix(1 0 0 -1 1531.25 113.5)" d="M-12 -11.5L12 -11.5L12 11.5L-12 11.5L-12 -11.5Z"/>
	<path transform="matrix(1 0 0 -1 1557 113.5)" d="M-12 -11.5L12 -11.5L12 11.5L-12 11.5L-12 -11.5Z"/>
	<path transform="matrix(1 0 0 -1 1582.75 113.5)" d="M-12 -11.5L12 -11.5L12 11.5L-12 11.5L-12 -11.5Z"/>
	<path transform="matrix(1 0 0 -1 1608.5 113.5)" d="M-12 -11.5L12 -11.5L12 11.5L-12 11.5L-12 -11.5Z"/>
	<path transform="matrix(1 0 0 -1 1634.25 113.5)" d="M-12 -11.5L12 -11.5L12 11.5L-12 11.5L-12 -11.5Z"/>
	<path transform="matrix(1 0 0 -1 1660 113.5)" d="M-12 -11.5L12 -11.5L12 11.5L-12 11.5L-12 -11.5Z"/>
	<path transform="matrix(1 0 0 -1 1685.75 113.5)" d="M-12 -11.5L12 -11.5L12 11.5L-12 11.5L-12 -11.5Z"/>
	<path transform="matrix(1 0 0 -1 1711.5 113.5)" d="M-12 -11.5L12 -11.5L12 11.5L-12 11.5L-12 -11.5Z"/>
	<path transform="matrix(1 0 0 -1 1737.25 113.5)" d="M-12 -11.5L12 -11.5L12 11.5L-12 11.5L-12 -11.5Z"/>
	<path transform="matrix(1 0 0 -1 1763 113.5)" d="M-12 -11.5L12 -11.5L12 11.5L-12 11.5L-12 -11.5Z"/>
	<path transform="matrix(1 0 0 -1 1788.75 113.5)" d="M-12 -11.5L12 -11.5L12 11.5L-12 11.5L-12 -11.5Z"/>
	<path transform="matrix(1 0 0 -1 1814.5 113.5)" d="M-12 -11.5L12 -11.5L12 11.5L-12 11.5L-12 -11.5Z"/>
	<path transform="matrix(1 0 0 -1 12 88)" d="M-12 -11.5L12 -11.5L12 11.5L-12 11.5L-12 -11.5Z"/>
	<path transform="matrix(1 0 0 -1 37.75 88)" d="M-12 -11.5L12 -11.5L12 11.5L-12 11.5L-12 -11.5Z"/>
	<path transform="matrix(1 0 0 -1 63.5 88)" d="M-12 -11.5L12 -11.5L12 11.5L-12 11.5L-12 -11.5Z"/>
	<path transform="matrix(1 0 0 -1 89.25 88)" d="M-12 -11.5L12 -11.5L12 11.5L-12 11.5L-12 -11.5Z"/>
	<path transform="matrix(1 0 0 -1 115 88)" d="M-12 -11.5L12 -11.5L12 11.5L-12 11.5L-12 -11.5Z"/>
	<path transform="matrix(1 0 0 -1 140.75 88)" d="M-12 -11.5L12 -11.5L12 11.5L-12 11.5L-12 -11.5Z"/>
	<path transform="matrix(1 0 0 -1 166.5 88)" d="M-12 -11.5L12 -11.5L12 11.5L-12 11.5L-12 -11.5Z"/>
	<path transform="matrix(1 0 0 -1 192.25 88)" d="M-12 -11.5L12 -11.5L12 11.5L-12 11.5L-12 -11.5Z"/>
	<path transform="matrix(1 0 0 -1 218 88)" d="M-12 -11.5L12 -11.5L12 11.5L-12 11.5L-12 -11.5Z"/>
	<path transform="matrix(1 0 0 -1 243.75 88)" d="M-12 -11.5L12 -11.5L12 11.5L-12 11.5L-12 -11.5Z"/>
	<path transform="matrix(1 0 0 -1 269.5 88)" d="M-12 -11.5L12 -11.5L12 11.5L-12 11.5L-12 -11.5Z"/>
	<path transform="matrix(1 0 0 -1 295.25 88)" d="M-12 -11.5L12 -11.5L12 11.5L-12 11.5L-12 -11.5Z"/>
	<path transform="matrix(1 0 0 -1 321 88)" d="M-12 -11.5L12 -11.5L12 11.5L-12 11.5L-12 -11.5Z"/>
	<path transform="matrix(1 0 0 -1 346.75 88)" d="M-12 -11.5L12 -11.5L12 11.5L-12 11.5L-12 -11.5Z"/>
	<path transform="matrix(1 0 0 -1 372.5 88)" d="M-12 -11.5L12 -11.5L12 11.5L-12 11.5L-12 -11.5Z"/>
	<path transform="matrix(1 0 0 -1 398.25 88)" d="M-12 -11.5L12 -11.5L12 11.5L-12 11.5L-12 -11.5Z"/>
	<path transform="matrix(1 0 0 -1 424 88)" d="M-12 -11.5L12 -11.5L12 11.5L-12 11.5L-12 -11.5Z"/>
	<path transform="matrix(1 0 0 -1 449.75 88)" d="M-12 -11.5L12 -11.5L12 11.5L-12 11.5L-12 -11.5Z"/>
	<path transform="matrix(1 0 0 -1 475.5 88)" d="M-12 -11.5L12 -11.5L12 11.5L-12 11.5L-12 -11.5Z"/>
	<path transform="matrix(1 0 0 -1 501.25 88)" d="M-12 -11.5L12 -11.5L12 11.5L-12 11.5L-12 -11.5Z"/>
	<path transform="matrix(1 0 0 -1 527 88)" d="M-12 -11.5L12 -11.5L12 11.5L-12 11.5L-12 -11.5Z"/>
	<path transform="matrix(1 0 0 -1 552.75 88)" d="M-12 -11.5L12 -11.5L12 11.5L-12 11.5L-12 -11.5Z"/>
	<path transform="matrix(1 0 0 -1 578.5 88)" d="M-12 -11.5L12 -11.5L12 11.5L-12 11.5L-12 -11.5Z"/>
	<path transform="matrix(1 0 0 -1 604.25 88)" d="M-12 -11.5L12 -11.5L12 11.5L-12 11.5L-12 -11.5Z"/>
	<path transform="matrix(1 0 0 -1 630 88)" d="M-12 -11.5L12 -11.5L12 11.5L-12 11.5L-12 -11.5Z"/>
	<path transform="matrix(1 0 0 -1 655.75 88)" d="M-12 -11.5L12 -11.5L12 11.5L-12 11.5L-12 -11.5Z"/>
	<path transform="matrix(1 0 0 -1 681.5 88)" d="M-12 -11.5L12 -11.5L12 11.5L-12 11.5L-12 -11.5Z"/>
	<path transform="matrix(1 0 0 -1 707.25 88)" d="M-12 -11.5L12 -11.5L12 11.5L-12 11.5L-12 -11.5Z"/>
	<path transform="matrix(1 0 0 -1 733 88)" d="M-12 -11.5L12 -11.5L12 11.5L-12 11.5L-12 -11.5Z"/>
	<path transform="matrix(1 0 0 -1 758.75 88)" d="M-12 -11.5L12 -11.5L12 11.5L-12 11.5L-12 -11.5Z"/>
	<path transform="matrix(1 0 0 -1 784.5 88)" d="M-12 -11.5L12 -11.5L12 11.5L-12 11.5L-12 -11.5Z"/>
	<path transform="matrix(1 0 0 -1 810.25 88)" d="M-12 -11.5L12 -11.5L12 11.5L-12 11.5L-12 -11.5Z"/>
	<path transform="matrix(1 0 0 -1 836 88)" d="M-12 -11.5L12 -11.5L12 11.5L-12 11.5L-12 -11.5Z"/>
	<path transform="matrix(1 0 0 -1 861.75 88)" d="M-12 -11.5L12 -11.5L12 11.5L-12 11.5L-12 -11.5Z"/>
	<path transform="matrix(1 0 0 -1 887.5 88)" d="M-12 -11.5L12 -11.5L12 11.5L-12 11.5L-12 -11.5Z"/>
	<path transform="matrix(1 0 0 -1 913.25 88)" d="M-12 -11.5L12 -11.5L12 11.5L-12 11.5L-12 -11.5Z"/>
	<path transform="matrix(1 0 0 -1 939 88)" d="M-12 -11.5L12 -11.5L12 11.5L-12 11.5L-12 -11.5Z"/>
	<path transform="matrix(1 0 0 -1 964.75 88)" d="M-12 -11.5L12 -11.5L12 11.5L-12 11.5L-12 -11.5Z"/>
	<path transform="matrix(1 0 0 -1 990.5 88)" d="M-12 -11.5L12 -11.5L12 11.5L-12 11.5L-12 -11.5Z"/>
	<path transform="matrix(1 0 0 -1 1016.25 88)" d="M-12 -11.5L12 -11.5L12 11.5L-12 11.5L-12 -11.5Z"/>
	<path transform="matrix(1 0 0 -1 1042 88)" d="M-12 -11.5L12 -11.5L12 11.5L-12 11.5L-12 -11.5Z"/>
	<path transform="matrix(1 0 0 -1 1067.75 88)" d="M-12 -11.5L12 -11.5L12 11.5L-12 11.5L-12 -11.5Z"/>
	<path transform="matrix(1 0 0 -1 1093.5 88)" d="M-12 -11.5L12 -11.5L12 11.5L-12 11.5L-12 -11.5Z"/>
	<path transform="matrix(1 0 0 -1 1119.25 88)" d="M-12 -11.5L12 -11.5L12 11.5L-12 11.5L-12 -11.5Z"/>
	<path transform="matrix(1 0 0 -1 1145 88)" d="M-12 -11.5L12 -11.5L12 11.5L-12 11.5L-12 -11.5Z"/>
	<path transform="matrix(1 0 0 -1 1170.75 88)" d="M-12 -11.5L12 -11.5L12 11.5L-12 11.5L-12 -11.5Z"/>
	<path transform="matrix(1 0 0 -1 1196.5 88)" d="M-12 -11.5L12 -11.5L12 11.5L-12 11.5L-12 -11.5Z"/>
	<path transform="matrix(1 0 0 -1 1222.25 88)" d="M-12 -11.5L12 -11.5L12 11.5L-12 11.5L-12 -11.5Z"/>
	<path transform="matrix(1 0 0 -1 1248 88)" d="M-12 -11.5L12 -11.5L12 11.5L-12 11.5L-12 -11.5Z"/>
	<path transform="matrix(1 0 0 -1 1273.75 88)" d="M-12 -11.5L12 -11.5L12 11.5L-12 11.5L-12 -11.5Z"/>
	<path transform="matrix(1 0 0 -1 1299.5 88)" d="M-12 -11.5L12 -11.5L12 11.5L-12 11.5L-12 -11.5Z"/>
	<path transform="matrix(1 0 0 -1 1325.25 88)" d="M-12 -11.5L12 -11.5L12 11.5L-12 11.5L-12 -11.5Z"/>
	<path transform="matrix(1 0 0 -1 1351 88)" d="M-12 -11.5L12 -11.5L12 11.5L-12 11.5L-12 -11.5Z"/>
	<path transform="matrix(1 0 0 -1 1376.75 88)" d="M-12 -11.5L12 -11.5L12 11.5L-12 11.5L-12 -11.5Z"/>
	<path transform="matrix(1 0 0 -1 1402.5 88)" d="M-12 -11.5L12 -11.5L12 11.5L-12 11.5L-12 -11.5Z"/>
	<path transform="matrix(1 0 0 -1 1428.25 88)" d="M-12 -11.5L12 -11.5L12 11.5L-12 11.5L-12 -11.5Z"/>
	<path transform="matrix(1 0 0 -1 1454 88)" d="M-12 -11.5L12 -11.5L12 11.5L-12 11.5L-12 -11.5Z"/>
	<path transform="matrix(1 0 0 -1 1479.75 88)" d="M-12 -11.5L12 -11.5L12 11.5L-12 11.5L-12 -11.5Z"/>
	<path transform="matrix(1 0 0 -1 1505.5 88)" d="M-12 -11.5L12 -11.5L12 11.5L-12 11.5L-12 -11.5Z"/>
	<path transform="matrix(1 0 0 -1 1531.25 88)" d="M-12 -11.5L12 -11.5L12 11.5L-12 11.5L-12 -11.5Z"/>
	<path transform="matrix(1 0 0 -1 1557 88)" d="M-12 -11.5L12 -11.5L12 11.5L-12 11.5L-12 -11.5Z"/>
	<path transform="matrix(1 0 0 -1 1582.75 88)" d="M-12 -11.5L12 -11.5L12 11.5L-12 11.5L-12 -11.5Z"/>
	<path transform="matrix(1 0 0 -1 1608.5 88)" d="M-12 -11.5L12 -11.5L12 11.5L-12 11.5L-12 -11.5Z"/>
	<path transform="matrix(1 0 0 -1 1634.25 88)" d="M-12 -11.5L12 -11.5L12 11.5L-12 11.5L-12 -11.5Z"/>
	<path transform="matrix(1 0 0 -1 1660 88)" d="M-12 -11.5L12 -11.5L12 11.5L-12 11.5L-12 -11.5Z"/>
	<path transform="matrix(1 0 0 -1 1685.75 88)" d="M-12 -11.5L12 -11.5L12 11.5L-12 11.5L-12 -11.5Z"/>
	<path transform="matrix(1 0 0 -1 1711.5 88)" d="M-12 -11.5L12 -11.5L12 11.5L-12 11.5L-12 -11.5Z"/>
	<path transform="matrix(1 0 0 -1 1737.25 88)" d="M-12 -11.5L12 -11.5L12 11.5L-12 11.5L-12 -11.5Z"/>
	<path transform="matrix(1 0 0 -1 1763 88)" d="M-12 -11.5L12 -11.5L12 11.5L-12 11.5L-12 -11.5Z"/>
	<path transform="matrix(1 0 0 -1 1788.75 88)" d="M-12 -11.5L12 -11.5L12 11.5L-12 11.5L-12 -11.5Z"/>
	<path transform="matrix(1 0 0 -1 1814.5 88)" d="M-12 -11.5L12 -11.5L12 11.5L-12 11.5L-12 -11.5Z"/>
	<path transform="matrix(1 0 0 -1 12 62.5)" d="M-12 -11.5L12 -11.5L12 11.5L-12 11.5L-12 -11.5Z"/>
	<path transform="matrix(1 0 0 -1 37.75 62.5)" d="M-12 -11.5L12 -11.5L12 11.5L-12 11.5L-12 -11.5Z"/>
	<path transform="matrix(1 0 0 -1 63.5 62.5)" d="M-12 -11.5L12 -11.5L12 11.5L-12 11.5L-12 -11.5Z"/>
	<path transform="matrix(1 0 0 -1 89.25 62.5)" d="M-12 -11.5L12 -11.5L12 11.5L-12 11.5L-12 -11.5Z"/>
	<path transform="matrix(1 0 0 -1 115 62.5)" d="M-12 -11.5L12 -11.5L12 11.5L-12 11.5L-12 -11.5Z"/>
	<path transform="matrix(1 0 0 -1 140.75 62.5)" d="M-12 -11.5L12 -11.5L12 11.5L-12 11.5L-12 -11.5Z"/>
	<path transform="matrix(1 0 0 -1 166.5 62.5)" d="M-12 -11.5L12 -11.5L12 11.5L-12 11.5L-12 -11.5Z"/>
	<path transform="matrix(1 0 0 -1 192.25 62.5)" d="M-12 -11.5L12 -11.5L12 11.5L-12 11.5L-12 -11.5Z"/>
	<path transform="matrix(1 0 0 -1 218 62.5)" d="M-12 -11.5L12 -11.5L12 11.5L-12 11.5L-12 -11.5Z"/>
	<path transform="matrix(1 0 0 -1 243.75 62.5)" d="M-12 -11.5L12 -11.5L12 11.5L-12 11.5L-12 -11.5Z"/>
	<path transform="matrix(1 0 0 -1 269.5 62.5)" d="M-12 -11.5L12 -11.5L12 11.5L-12 11.5L-12 -11.5Z"/>
	<path transform="matrix(1 0 0 -1 295.25 62.5)" d="M-12 -11.5L12 -11.5L12 11.5L-12 11.5L-12 -11.5Z"/>
	<path transform="matrix(1 0 0 -1 321 62.5)" d="M-12 -11.5L12 -11.5L12 11.5L-12 11.5L-12 -11.5Z"/>
	<path transform="matrix(1 0 0 -1 346.75 62.5)" d="M-12 -11.5L12 -11.5L12 11.5L-12 11.5L-12 -11.5Z"/>
	<path transform="matrix(1 0 0 -1 372.5 62.5)" d="M-12 -11.5L12 -11.5L12 11.5L-12 11.5L-12 -11.5Z"/>
	<path transform="matrix(1 0 0 -1 398.25 62.5)" d="M-12 -11.5L12 -11.5L12 11.5L-12 11.5L-12 -11.5Z"/>
	<path transform="matrix(1 0 0 -1 424 62.5)" d="M-12 -11.5L12 -11.5L12 11.5L-12 11.5L-12 -11.5Z"/>
	<path transform="matrix(1 0 0 -1 449.75 62.5)" d="M-12 -11.5L12 -11.5L12 11.5L-12 11.5L-12 -11.5Z"/>
	<path transform="matrix(1 0 0 -1 475.5 62.5)" d="M-12 -11.5L12 -11.5L12 11.5L-12 11.5L-12 -11.5Z"/>
	<path transform="matrix(1 0 0 -1 501.25 62.5)" d="M-12 -11.5L12 -11.5L12 11.5L-12 11.5L-12 -11.5Z"/>
	<path transform="matrix(1 0 0 -1 527 62.5)" d="M-12 -11.5L12 -11.5L12 11.5L-12 11.5L-12 -11.5Z"/>
	<path transform="matrix(1 0 0 -1 552.75 62.5)" d="M-12 -11.5L12 -11.5L12 11.5L-12 11.5L-12 -11.5Z"/>
	<path transform="matrix(1 0 0 -1 578.5 62.5)" d="M-12 -11.5L12 -11.5L12 11.5L-12 11.5L-12 -11.5Z"/>
	<path transform="matrix(1 0 0 -1 604.25 62.5)" d="M-12 -11.5L12 -11.5L12 11.5L-12 11.5L-12 -11.5Z"/>
	<path transform="matrix(1 0 0 -1 630 62.5)" d="M-12 -11.5L12 -11.5L12 11.5L-12 11.5L-12 -11.5Z"/>
	<path transform="matrix(1 0 0 -1 655.75 62.5)" d="M-12 -11.5L12 -11.5L12 11.5L-12 11.5L-12 -11.5Z"/>
	<path transform="matrix(1 0 0 -1 681.5 62.5)" d="M-12 -11.5L12 -11.5L12 11.5L-12 11.5L-12 -11.5Z"/>
	<path transform="matrix(1 0 0 -1 707.25 62.5)" d="M-12 -11.5L12 -11.5L12 11.5L-12 11.5L-12 -11.5Z"/>
	<path transform="matrix(1 0 0 -1 733 62.5)" d="M-12 -11.5L12 -11.5L12 11.5L-12 11.5L-12 -11.5Z"/>
	<path transform="matrix(1 0 0 -1 758.75 62.5)" d="M-12 -11.5L12 -11.5L12 11.5L-12 11.5L-12 -11.5Z"/>
	<path transform="matrix(1 0 0 -1 784.5 62.5)" d="M-12 -11.5L12 -11.5L12 11.5L-12 11.5L-12 -11.5Z"/>
	<path transform="matrix(1 0 0 -1 810.25 62.5)" d="M-12 -11.5L12 -11.5L12 11.5L-12 11.5L-12 -11.5Z"/>
	<path transform="matrix(1 0 0 -1 836 62.5)" d="M-12 -11.5L12 -11.5L12 11.5L-12 11.5L-12 -11.5Z"/>
	<path transform="matrix(1 0 0 -1 861.75 62.5)" d="M-12 -11.5L12 -11.5L12 11.5L-12 11.5L-12 -11.5Z"/>
	<path transform="matrix(1 0 0 -1 887.5 62.5)" d="M-12 -11.5L12 -11.5L12 11.5L-12 11.5L-12 -11.5Z"/>
	<path transform="matrix(1 0 0 -1 913.25 62.5)" d="M-12 -11.5L12 -11.5L12 11.5L-12 11.5L-12 -11.5Z"/>
	<path transform="matrix(1 0 0 -1 939 62.5)" d="M-12 -11.5L12 -11.5L12 11.5L-12 11.5L-12 -11.5Z"/>
	<path transform="matrix(1 0 0 -1 964.75 62.5)" d="M-12 -11.5L12 -11.5L12 11.5L-12 11.5L-12 -11.5Z"/>
	<path transform="matrix(1 0 0 -1 990.5 62.5)" d="M-12 -11.5L12 -11.5L12 11.5L-12 11.5L-12 -11.5Z"/>
	<path transform="matrix(1 0 0 -1 1016.25 62.5)" d="M-12 -11.5L12 -11.5L12 11.5L-12 11.5L-12 -11.5Z"/>
	<path transform="matrix(1 0 0 -1 1042 62.5)" d="M-12 -11.5L12 -11.5L12 11.5L-12 11.5L-12 -11.5Z"/>
	<path transform="matrix(1 0 0 -1 1067.75 62.5)" d="M-12 -11.5L12 -11.5L12 11.5L-12 11.5L-12 -11.5Z"/>
	<path transform="matrix(1 0 0 -1 1093.5 62.5)" d="M-12 -11.5L12 -11.5L12 11.5L-12 11.5L-12 -11.5Z"/>
	<path transform="matrix(1 0 0 -1 1119.25 62.5)" d="M-12 -11.5L12 -11.5L12 11.5L-12 11.5L-12 -11.5Z"/>
	<path transform="matrix(1 0 0 -1 1145 62.5)" d="M-12 -11.5L12 -11.5L12 11.5L-12 11.5L-12 -11.5Z"/>
	<path transform="matrix(1 0 0 -1 1170.75 62.5)" d="M-12 -11.5L12 -11.5L12 11.5L-12 11.5L-12 -11.5Z"/>
	<path transform="matrix(1 0 0 -1 1196.5 62.5)" d="M-12 -11.5L12 -11.5L12 11.5L-12 11.5L-12 -11.5Z"/>
	<path transform="matrix(1 0 0 -1 1222.25 62.5)" d="M-12 -11.5L12 -11.5L12 11.5L-12 11.5L-12 -11.5Z"/>
	<path transform="matrix(1 0 0 -1 1248 62.5)" d="M-12 -11.5L12 -11.5L12 11.5L-12 11.5L-12 -11.5Z"/>
	<path transform="matrix(1 0 0 -1 1273.75 62.5)" d="M-12 -11.5L12 -11.5L12 11.5L-12 11.5L-12 -11.5Z"/>
	<path transform="matrix(1 0 0 -1 1299.5 62.5)" d="M-12 -11.5L12 -11.5L12 11.5L-12 11.5L-12 -11.5Z"/>
	<path transform="matrix(1 0 0 -1 1325.25 62.5)" d="M-12 -11.5L12 -11.5L12 11.5L-12 11.5L-12 -11.5Z"/>
	<path transform="matrix(1 0 0 -1 1351 62.5)" d="M-12 -11.5L12 -11.5L12 11.5L-12 11.5L-12 -11.5Z"/>
	<path transform="matrix(1 0 0 -1 1376.75 62.5)" d="M-12 -11.5L12 -11.5L12 11.5L-12 11.5L-12 -11.5Z"/>
	<path transform="matrix(1 0 0 -1 1402.5 62.5)" d="M-12 -11.5L12 -11.5L12 11.5L-12 11.5L-12 -11.5Z"/>
	<path transform="matrix(1 0 0 -1 1428.25 62.5)" d="M-12 -11.5L12 -11.5L12 11.5L-12 11.5L-12 -11.5Z"/>
	<path transform="matrix(1 0 0 -1 1454 62.5)" d="M-12 -11.5L12 -11.5L12 11.5L-12 11.5L-12 -11.5Z"/>
	<path transform="matrix(1 0 0 -1 1479.75 62.5)" d="M-12 -11.5L12 -11.5L12 11.5L-12 11.5L-12 -11.5Z"/>
	<path transform="matrix(1 0 0 -1 1505.5 62.5)" d="M-12 -11.5L12 -11.5L12 11.5L-12 11.5L-12 -11.5Z"/>
	<path transform="matrix(1 0 0 -1 1531.25 62.5)" d="M-12 -11.5L12 -11.5L12 11.5L-12 11.5L-12 -11.5Z"/>
	<path transform="matrix(1 0 0 -1 1557 62.5)" d="M-12 -11.5L12 -11.5L12 11.5L-12 11.5L-12 -11.5Z"/>
	<path transform="matrix(1 0 0 -1 1582.75 62.5)" d="M-12 -11.5L12 -11.5L12 11.5L-12 11.5L-12 -11.5Z"/>
	<path transform="matrix(1 0 0 -1 1608.5 62.5)" d="M-12 -11.5L12 -11.5L12 11.5L-12 11.5L-12 -11.5Z"/>
	<path transform="matrix(1 0 0 -1 1634.25 62.5)" d="M-12 -11.5L12 -11.5L12 11.5L-12 11.5L-12 -11.5Z"/>
	<path transform="matrix(1 0 0 -1 1660 62.5)" d="M-12 -11.5L12 -11.5L12 11.5L-12 11.5L-12 -11.5Z"/>
	<path transform="matrix(1 0 0 -1 1685.75 62.5)" d="M-12 -11.5L12 -11.5L12 11.5L-12 11.5L-12 -11.5Z"/>
	<path transform="matrix(1 0 0 -1 1711.5 62.5)" d="M-12 -11.5L12 -11.5L12 11.5L-12 11.5L-12 -11.5Z"/>
	<path transform="matrix(1 0 0 -1 1737.25 62.5)" d="M-12 -11.5L12 -11.5L12 11.5L-12 11.5L-12 -11.5Z"/>
	<path transform="matrix(1 0 0 -1 1763 62.5)" d="M-12 -11.5L12 -11.5L12 11.5L-12 11.5L-12 -11.5Z"/>
	<path transform="matrix(1 0 0 -1 1788.75 62.5)" d="M-12 -11.5L12 -11.5L12 11.5L-12 11.5L-12 -11.5Z"/>
	<path transform="matrix(1 0 0 -1 1814.5 62.5)" d="M-12 -11.5L12 -11.5L12 11.5L-12 11.5L-12 -11.5Z"/>
	<path transform="matrix(1 0 0 -1 12 37)" d="M-12 -11.5L12 -11.5L12 11.5L-12 11.5L-12 -11.5Z"/>
	<path transform="matrix(1 0 0 -1 37.75 37)" d="M-12 -11.5L12 -11.5L12 11.5L-12 11.5L-12 -11.5Z"/>
	<path transform="matrix(1 0 0 -1 63.5 37)" d="M-12 -11.5L12 -11.5L12 11.5L-12 11.5L-12 -11.5Z"/>
	<path transform="matrix(1 0 0 -1 89.25 37)" d="M-12 -11.5L12 -11.5L12 11.5L-12 11.5L-12 -11.5Z"/>
	<path transform="matrix(1 0 0 -1 115 37)" d="M-12 -11.5L12 -11.5L12 11.5L-12 11.5L-12 -11.5Z"/>
	<path transform="matrix(1 0 0 -1 140.75 37)" d="M-12 -11.5L12 -11.5L12 11.5L-12 11.5L-12 -11.5Z"/>
	<path transform="matrix(1 0 0 -1 166.5 37)" d="M-12 -11.5L12 -11.5L12 11.5L-12 11.5L-12 -11.5Z"/>
	<path transform="matrix(1 0 0 -1 192.25 37)" d="M-12 -11.5L12 -11.5L12 11.5L-12 11.5L-12 -11.5Z"/>
	<path transform="matrix(1 0 0 -1 218 37)" d="M-12 -11.5L12 -11.5L12 11.5L-12 11.5L-12 -11.5Z"/>
	<path transform="matrix(1 0 0 -1 243.75 37)" d="M-12 -11.5L12 -11.5L12 11.5L-12 11.5L-12 -11.5Z"/>
	<path transform="matrix(1 0 0 -1 269.5 37)" d="M-12 -11.5L12 -11.5L12 11.5L-12 11.5L-12 -11.5Z"/>
	<path transform="matrix(1 0 0 -1 295.25 37)" d="M-12 -11.5L12 -11.5L12 11.5L-12 11.5L-12 -11.5Z"/>
	<path transform="matrix(1 0 0 -1 321 37)" d="M-12 -11.5L12 -11.5L12 11.5L-12 11.5L-12 -11.5Z"/>
	<path transform="matrix(1 0 0 -1 346.75 37)" d="M-12 -11.5L12 -11.5L12 11.5L-12 11.5L-12 -11.5Z"/>
	<path transform="matrix(1 0 0 -1 372.5 37)" d="M-12 -11.5L12 -11.5L12 11.5L-12 11.5L-12 -11.5Z"/>
	<path transform="matrix(1 0 0 -1 398.25 37)" d="M-12 -11.5L12 -11.5L12 11.5L-12 11.5L-12 -11.5Z"/>
	<path transform="matrix(1 0 0 -1 424 37)" d="M-12 -11.5L12 -11.5L12 11.5L-12 11.5L-12 -11.5Z"/>
	<path transform="matrix(1 0 0 -1 449.75 37)" d="M-12 -11.5L12 -11.5L12 11.5L-12 11.5L-12 -11.5Z"/>
	<path transform="matrix(1 0 0 -1 475.5 37)" d="M-12 -11.5L12 -11.5L12 11.5L-12 11.5L-12 -11.5Z"/>
	<path transform="matrix(1 0 0 -1 501.25 37)" d="M-12 -11.5L12 -11.5L12 11.5L-12 11.5L-12 -11.5Z"/>
	<path transform="matrix(1 0 0 -1 527 37)" d="M-12 -11.5L12 -11.5L12 11.5L-12 11.5L-12 -11.5Z"/>
	<path transform="matrix(1 0 0 -1 552.75 37)" d="M-12 -11.5L12 -11.5L12 11.5L-12 11.5L-12 -11.5Z"/>
	<path transform="matrix(1 0 0 -1 578.5 37)" d="M-12 -11.5L12 -11.5L12 11.5L-12 11.5L-12 -11.5Z"/>
	<path transform="matrix(1 0 0 -1 604.25 37)" d="M-12 -11.5L12 -11.5L12 11.5L-12 11.5L-12 -11.5Z"/>
	<path transform="matrix(1 0 0 -1 630 37)" d="M-12 -11.5L12 -11.5L12 11.5L-12 11.5L-12 -11.5Z"/>
	<path transform="matrix(1 0 0 -1 655.75 37)" d="M-12 -11.5L12 -11.5L12 11.5L-12 11.5L-12 -11.5Z"/>
	<path transform="matrix(1 0 0 -1 681.5 37)" d="M-12 -11.5L12 -11.5L12 11.5L-12 11.5L-12 -11.5Z"/>
	<path transform="matrix(1 0 0 -1 707.25 37)" d="M-12 -11.5L12 -11.5L12 11.5L-12 11.5L-12 -11.5Z"/>
	<path transform="matrix(1 0 0 -1 733 37)" d="M-12 -11.5L12 -11.5L12 11.5L-12 11.5L-12 -11.5Z"/>
	<path transform="matrix(1 0 0 -1 758.75 37)" d="M-12 -11.5L12 -11.5L12 11.5L-12 11.5L-12 -11.5Z"/>
	<path transform="matrix(1 0 0 -1 784.5 37)" d="M-12 -11.5L12 -11.5L12 11.5L-12 11.5L-12 -11.5Z"/>
	<path transform="matrix(1 0 0 -1 810.25 37)" d="M-12 -11.5L12 -11.5L12 11.5L-12 11.5L-12 -11.5Z"/>
	<path transform="matrix(1 0 0 -1 836 37)" d="M-12 -11.5L12 -11.5L12 11.5L-12 11.5L-12 -11.5Z"/>
	<path transform="matrix(1 0 0 -1 861.75 37)" d="M-12 -11.5L12 -11.5L12 11.5L-12 11.5L-12 -11.5Z"/>
	<path transform="matrix(1 0 0 -1 887.5 37)" d="M-12 -11.5L12 -11.5L12 11.5L-12 11.5L-12 -11.5Z"/>
	<path transform="matrix(1 0 0 -1 913.25 37)" d="M-12 -11.5L12 -11.5L12 11.5L-12 11.5L-12 -11.5Z"/>
	<path transform="matrix(1 0 0 -1 939 37)" d="M-12 -11.5L12 -11.5L12 11.5L-12 11.5L-12 -11.5Z"/>
	<path transform="matrix(1 0 0 -1 964.75 37)" d="M-12 -11.5L12 -11.5L12 11.5L-12 11.5L-12 -11.5Z"/>
	<path transform="matrix(1 0 0 -1 990.5 37)" d="M-12 -11.5L12 -11.5L12 11.5L-12 11.5L-12 -11.5Z"/>
	<path transform="matrix(1 0 0 -1 1016.25 37)" d="M-12 -11.5L12 -11.5L12 11.5L-12 11.5L-12 -11.5Z"/>
	<path transform="matrix(1 0 0 -1 1042 37)" d="M-12 -11.5L12 -11.5L12 11.5L-12 11.5L-12 -11.5Z"/>
	<path transform="matrix(1 0 0 -1 1067.75 37)" d="M-12 -11.5L12 -11.5L12 11.5L-12 11.5L-12 -11.5Z"/>
	<path transform="matrix(1 0 0 -1 1093.5 37)" d="M-12 -11.5L12 -11.5L12 11.5L-12 11.5L-12 -11.5Z"/>
	<path transform="matrix(1 0 0 -1 1119.25 37)" d="M-12 -11.5L12 -11.5L12 11.5L-12 11.5L-12 -11.5Z"/>
	<path transform="matrix(1 0 0 -1 1145 37)" d="M-12 -11.5L12 -11.5L12 11.5L-12 11.5L-12 -11.5Z"/>
	<path transform="matrix(1 0 0 -1 1170.75 37)" d="M-12 -11.5L12 -11.5L12 11.5L-12 11.5L-12 -11.5Z"/>
	<path transform="matrix(1 0 0 -1 1196.5 37)" d="M-12 -11.5L12 -11.5L12 11.5L-12 11.5L-12 -11.5Z"/>
	<path transform="matrix(1 0 0 -1 1222.25 37)" d="M-12 -11.5L12 -11.5L12 11.5L-12 11.5L-12 -11.5Z"/>
	<path transform="matrix(1 0 0 -1 1248 37)" d="M-12 -11.5L12 -11.5L12 11.5L-12 11.5L-12 -11.5Z"/>
	<path transform="matrix(1 0 0 -1 1273.75 37)" d="M-12 -11.5L12 -11.5L12 11.5L-12 11.5L-12 -11.5Z"/>
	<path transform="matrix(1 0 0 -1 1299.5 37)" d="M-12 -11.5L12 -11.5L12 11.5L-12 11.5L-12 -11.5Z"/>
	<path transform="matrix(1 0 0 -1 1325.25 37)" d="M-12 -11.5L12 -11.5L12 11.5L-12 11.5L-12 -11.5Z"/>
	<path transform="matrix(1 0 0 -1 1351 37)" d="M-12 -11.5L12 -11.5L12 11.5L-12 11.5L-12 -11.5Z"/>
	<path transform="matrix(1 0 0 -1 1376.75 37)" d="M-12 -11.5L12 -11.5L12 11.5L-12 11.5L-12 -11.5Z"/>
	<path transform="matrix(1 0 0 -1 1402.5 37)" d="M-12 -11.5L12 -11.5L12 11.5L-12 11.5L-12 -11.5Z"/>
	<path transform="matrix(1 0 0 -1 1428.25 37)" d="M-12 -11.5L12 -11.5L12 11.5L-12 11.5L-12 -11.5Z"/>
	<path transform="matrix(1 0 0 -1 1454 37)" d="M-12 -11.5L12 -11.5L12 11.5L-12 11.5L-12 -11.5Z"/>
	<path transform="matrix(1 0 0 -1 1479.75 37)" d="M-12 -11.5L12 -11.5L12 11.5L-12 11.5L-12 -11.5Z"/>
	<path transform="matrix(1 0 0 -1 1505.5 37)" d="M-12 -11.5L12 -11.5L12 11.5L-12 11.5L-12 -11.5Z"/>
	<path transform="matrix(1 0 0 -1 1531.25 37)" d="M-12 -11.5L12 -11.5L12 11.5L-12 11.5L-12 -11.5Z"/>
	<path transform="matrix(1 0 0 -1 1557 37)" d="M-12 -11.5L12 -11.5L12 11.5L-12 11.5L-12 -11.5Z"/>
	<path transform="matrix(1 0 0 -1 1582.75 37)" d="M-12 -11.5L12 -11.5L12 11.5L-12 11.5L-12 -11.5Z"/>
	<path transform="matrix(1 0 0 -1 1608.5 37)" d="M-12 -11.5L12 -11.5L12 11.5L-12 11.5L-12 -11.5Z"/>
	<path transform="matrix(1 0 0 -1 1634.25 37)" d="M-12 -11.5L12 -11.5L12 11.5L-12 11.5L-12 -11.5Z"/>
	<path transform="matrix(1 0 0 -1 1660 37)" d="M-12 -11.5L12 -11.5L12 11.5L-12 11.5L-12 -11.5Z"/>
	<path transform="matrix(1 0 0 -1 1685.75 37)" d="M-12 -11.5L12 -11.5L12 11.5L-12 11.5L-12 -11.5Z"/>
	<path transform="matrix(1 0 0 -1 1711.5 37)" d="M-12 -11.5L12 -11.5L12 11.5L-12 11.5L-12 -11.5Z"/>
	<path transform="matrix(1 0 0 -1 1737.25 37)" d="M-12 -11.5L12 -11.5L12 11.5L-12 11.5L-12 -11.5Z"/>
	<path transform="matrix(1 0 0 -1 1763 37)" d="M-12 -11.5L12 -11.5L12 11.5L-12 11.5L-12 -11.5Z"/>
	<path transform="matrix(1 0 0 -1 1788.75 37)" d="M-12 -11.5L12 -11.5L12 11.5L-12 11.5L-12 -11.5Z"/>
	<path transform="matrix(1 0 0 -1 1814.5 37)" d="M-12 -11.5L12 -11.5L12 11.5L-12 11.5L-12 -11.5Z"/>
	<path transform="matrix(1 0 0 -1 12 11.5)" d="M-12 -11.5L12 -11.5L12 11.5L-12 11.5L-12 -11.5Z"/>
	<path transform="matrix(1 0 0 -1 37.75 11.5)" d="M-12 -11.5L12 -11.5L12 11.5L-12 11.5L-12 -11.5Z"/>
	<path transform="matrix(1 0 0 -1 63.5 11.5)" d="M-12 -11.5L12 -11.5L12 11.5L-12 11.5L-12 -11.5Z"/>
	<path transform="matrix(1 0 0 -1 89.25 11.5)" d="M-12 -11.5L12 -11.5L12 11.5L-12 11.5L-12 -11.5Z"/>
	<path transform="matrix(1 0 0 -1 115 11.5)" d="M-12 -11.5L12 -11.5L12 11.5L-12 11.5L-12 -11.5Z"/>
	<path transform="matrix(1 0 0 -1 140.75 11.5)" d="M-12 -11.5L12 -11.5L12 11.5L-12 11.5L-12 -11.5Z"/>
	<path transform="matrix(1 0 0 -1 166.5 11.5)" d="M-12 -11.5L12 -11.5L12 11.5L-12 11.5L-12 -11.5Z"/>
	<path transform="matrix(1 0 0 -1 192.25 11.5)" d="M-12 -11.5L12 -11.5L12 11.5L-12 11.5L-12 -11.5Z"/>
	<path transform="matrix(1 0 0 -1 218 11.5)" d="M-12 -11.5L12 -11.5L12 11.5L-12 11.5L-12 -11.5Z"/>
	<path transform="matrix(1 0 0 -1 243.75 11.5)" d="M-12 -11.5L12 -11.5L12 11.5L-12 11.5L-12 -11.5Z"/>
	<path transform="matrix(1 0 0 -1 269.5 11.5)" d="M-12 -11.5L12 -11.5L12 11.5L-12 11.5L-12 -11.5Z"/>
	<path transform="matrix(1 0 0 -1 295.25 11.5)" d="M-12 -11.5L12 -11.5L12 11.5L-12 11.5L-12 -11.5Z"/>
	<path transform="matrix(1 0 0 -1 321 11.5)" d="M-12 -11.5L12 -11.5L12 11.5L-12 11.5L-12 -11.5Z"/>
	<path transform="matrix(1 0 0 -1 346.75 11.5)" d="M-12 -11.5L12 -11.5L12 11.5L-12 11.5L-12 -11.5Z"/>
	<path transform="matrix(1 0 0 -1 372.5 11.5)" d="M-12 -11.5L12 -11.5L12 11.5L-12 11.5L-12 -11.5Z"/>
	<path transform="matrix(1 0 0 -1 398.25 11.5)" d="M-12 -11.5L12 -11.5L12 11.5L-12 11.5L-12 -11.5Z"/>
	<path transform="matrix(1 0 0 -1 424 11.5)" d="M-12 -11.5L12 -11.5L12 11.5L-12 11.5L-12 -11.5Z"/>
	<path transform="matrix(1 0 0 -1 449.75 11.5)" d="M-12 -11.5L12 -11.5L12 11.5L-12 11.5L-12 -11.5Z"/>
	<path transform="matrix(1 0 0 -1 475.5 11.5)" d="M-12 -11.5L12 -11.5L12 11.5L-12 11.5L-12 -11.5Z"/>
	<path transform="matrix(1 0 0 -1 501.25 11.5)" d="M-12 -11.5L12 -11.5L12 11.5L-12 11.5L-12 -11.5Z"/>
	<path transform="matrix(1 0 0 -1 527 11.5)" d="M-12 -11.5L12 -11.5L12 11.5L-12 11.5L-12 -11.5Z"/>
	<path transform="matrix(1 0 0 -1 552.75 11.5)" d="M-12 -11.5L12 -11.5L12 11.5L-12 11.5L-12 -11.5Z"/>
	<path transform="matrix(1 0 0 -1 578.5 11.5)" d="M-12 -11.5L12 -11.5L12 11.5L-12 11.5L-12 -11.5Z"/>
	<path transform="matrix(1 0 0 -1 604.25 11.5)" d="M-12 -11.5L12 -11.5L12 11.5L-12 11.5L-12 -11.5Z"/>
	<path transform="matrix(1 0 0 -1 630 11.5)" d="M-12 -11.5L12 -11.5L12 11.5L-12 11.5L-12 -11.5Z"/>
	<path transform="matrix(1 0 0 -1 655.75 11.5)" d="M-12 -11.5L12 -11.5L12 11.5L-12 11.5L-12 -11.5Z"/>
	<path transform="matrix(1 0 0 -1 681.5 11.5)" d="M-12 -11.5L12 -11.5L12 11.5L-12 11.5L-12 -11.5Z"/>
	<path transform="matrix(1 0 0 -1 707.25 11.5)" d="M-12 -11.5L12 -11.5L12 11.5L-12 11.5L-12 -11.5Z"/>
	<path transform="matrix(1 0 0 -1 733 11.5)" d="M-12 -11.5L12 -11.5L12 11.5L-12 11.5L-12 -11.5Z"/>
	<path transform="matrix(1 0 0 -1 758.75 11.5)" d="M-12 -11.5L12 -11.5L12 11.5L-12 11.5L-12 -11.5Z"/>
	<path transform="matrix(1 0 0 -1 784.5 11.5)" d="M-12 -11.5L12 -11.5L12 11.5L-12 11.5L-12 -11.5Z"/>
	<path transform="matrix(1 0 0 -1 810.25 11.5)" d="M-12 -11.5L12 -11.5L12 11.5L-12 11.5L-12 -11.5Z"/>
	<path transform="matrix(1 0 0 -1 836 11.5)" d="M-12 -11.5L12 -11.5L12 11.5L-12 11.5L-12 -11.5Z"/>
	<path transform="matrix(1 0 0 -1 861.75 11.5)" d="M-12 -11.5L12 -11.5L12 11.5L-12 11.5L-12 -11.5Z"/>
	<path transform="matrix(1 0 0 -1 887.5 11.5)" d="M-12 -11.5L12 -11.5L12 11.5L-12 11.5L-12 -11.5Z"/>
	<path transform="matrix(1 0 0 -1 913.25 11.5)" d="M-12 -11.5L12 -11.5L12 11.5L-12 11.5L-12 -11.5Z"/>
	<path transform="matrix(1 0 0 -1 939 11.5)" d="M-12 -11.5L12 -11.5L12 11.5L-12 11.5L-12 -11.5Z"/>
	<path transform="matrix(1 0 0 -1 964.75 11.5)" d="M-12 -11.5L12 -11.5L12 11.5L-12 11.5L-12 -11.5Z"/>
	<path transform="matrix(1 0 0 -1 990.5 11.5)" d="M-12 -11.5L12 -11.5L12 11.5L-12 11.5L-12 -11.5Z"/>
	<path transform="matrix(1 0 0 -1 1016.25 11.5)" d="M-12 -11.5L12 -11.5L12 11.5L-12 11.5L-12 -11.5Z"/>
	<path transform="matrix(1 0 0 -1 1042 11.5)" d="M-12 -11.5L12 -11.5L12 11.5L-12 11.5L-12 -11.5Z"/>
	<path transform="matrix(1 0 0 -1 1067.75 11.5)" d="M-12 -11.5L12 -11.5L12 11.5L-12 11.5L-12 -11.5Z"/>
	<path transform="matrix(1 0 0 -1 1093.5 11.5)" d="M-12 -11.5L12 -11.5L12 11.5L-12 11.5L-12 -11.5Z"/>
	<path transform="matrix(1 0 0 -1 1119.25 11.5)" d="M-12 -11.5L12 -11.5L12 11.5L-12 11.5L-12 -11.5Z"/>
	<path transform="matrix(1 0 0 -1 1145 11.5)" d="M-12 -11.5L12 -11.5L12 11.5L-12 11.5L-12 -11.5Z"/>
	<path transform="matrix(1 0 0 -1 1170.75 11.5)" d="M-12 -11.5L12 -11.5L12 11.5L-12 11.5L-12 -11.5Z"/>
	<path transform="matrix(1 0 0 -1 1196.5 11.5)" d="M-12 -11.5L12 -11.5L12 11.5L-12 11.5L-12 -11.5Z"/>
	<path transform="matrix(1 0 0 -1 1222.25 11.5)" d="M-12 -11.5L12 -11.5L12 11.5L-12 11.5L-12 -11.5Z"/>
	<path transform="matrix(1 0 0 -1 1248 11.5)" d="M-12 -11.5L12 -11.5L12 11.5L-12 11.5L-12 -11.5Z"/>
	<path transform="matrix(1 0 0 -1 1273.75 11.5)" d="M-12 -11.5L12 -11.5L12 11.5L-12 11.5L-12 -11.5Z"/>
	<path transform="matrix(1 0 0 -1 1299.5 11.5)" d="M-12 -11.5L12 -11.5L12 11.5L-12 11.5L-12 -11.5Z"/>
	<path transform="matrix(1 0 0 -1 1325.25 11.5)" d="M-12 -11.5L12 -11.5L12 11.5L-12 11.5L-12 -11.5Z"/>
	<path transform="matrix(1 0 0 -1 1351 11.5)" d="M-12 -11.5L12 -11.5L12 11.5L-12 11.5L-12 -11.5Z"/>
	<path transform="matrix(1 0 0 -1 1376.75 11.5)" d="M-12 -11.5L12 -11.5L12 11.5L-12 11.5L-12 -11.5Z"/>
	<path transform="matrix(1 0 0 -1 1402.5 11.5)" d="M-12 -11.5L12 -11.5L12 11.5L-12 11.5L-12 -11.5Z"/>
	<path transform="matrix(1 0 0 -1 1428.25 11.5)" d="M-12 -11.5L12 -11.5L12 11.5L-12 11.5L-12 -11.5Z"/>
	<path transform="matrix(1 0 0 -1 1454 11.5)" d="M-12 -11.5L12 -11.5L12 11.5L-12 11.5L-12 -11.5Z"/>
	<path transform="matrix(1 0 0 -1 1479.75 11.5)" d="M-12 -11.5L12 -11.5L12 11.5L-12 11.5L-12 -11.5Z"/>
	<path transform="matrix(1 0 0 -1 1505.5 11.5)" d="M-12 -11.5L12 -11.5L12 11.5L-12 11.5L-12 -11.5Z"/>
	<path transform="matrix(1 0 0 -1 1531.25 11.5)" d="M-12 -11.5L12 -11.5L12 11.5L-12 11.5L-12 -11.5Z"/>
	<path transform="matrix(1 0 0 -1 1557 11.5)" d="M-12 -11.5L12 -11.5L12 11.5L-12 11.5L-12 -11.5Z"/>
	<path transform="matrix(1 0 0 -1 1582.75 11.5)" d="M-12 -11.5L12 -11.5L12 11.5L-12 11.5L-12 -11.5Z"/>
	<path transform="matrix(1 0 0 -1 1608.5 11.5)" d="M-12 -11.5L12 -11.5L12 11.5L-12 11.5L-12 -11.5Z"/>
	<path transform="matrix(1 0 0 -1 1634.25 11.5)" d="M-12 -11.5L12 -11.5L12 11.5L-12 11.5L-12 -11.5Z"/>
	<path transform="matrix(1 0 0 -1 1660 11.5)" d="M-12 -11.5L12 -11.5L12 11.5L-12 11.5L-12 -11.5Z"/>
	<path transform="matrix(1 0 0 -1 1685.75 11.5)" d="M-12 -11.5L12 -11.5L12 11.5L-12 11.5L-12 -11.5Z"/>
	<path transform="matrix(1 0 0 -1 1711.5 11.5)" d="M-12 -11.5L12 -11.5L12 11.5L-12 11.5L-12 -11.5Z"/>
	<path transform="matrix(1 0 0 -1 1737.25 11.5)" d="M-12 -11.5L12 -11.5L12 11.5L-12 11.5L-12 -11.5Z"/>
	<path transform="matrix(1 0 0 -1 1763 11.5)" d="M-12 -11.5L12 -11.5L12 11.5L-12 11.5L-12 -11.5Z"/>
	<path transform="matrix(1 0 0 -1 1788.75 11.5)" d="M-12 -11.5L12 -11.5L12 11.5L-12 11.5L-12 -11.5Z"/>
	<path transform="matrix(1 0 0 -1 1814.5 11.5)" d="M-12 -11.5L12 -11.5L12 11.5L-12 11.5L-12 -11.5Z"/>
</svg>
